<svg width="24" height="24" viewBox="0 0 24 24" fill="none" xmlns="http://www.w3.org/2000/svg">
<path d="M24 5.2311C23.1167 5.6097 22.1689 5.86647 21.173 5.98111C22.1898 5.39212 22.9682 4.45791 23.3371 3.34815C22.3833 3.89358 21.3305 4.28964 20.2087 4.50434C19.3103 3.57738 18.0326 3 16.6153 3C13.8963 3 11.6917 5.13247 11.6917 7.76107C11.6917 8.13387 11.7352 8.49799 11.8192 8.84617C7.72801 8.64741 4.1002 6.75141 1.67216 3.87037C1.24773 4.57251 1.00628 5.39064 1.00628 6.26397C1.00628 7.91629 1.87612 9.3742 3.19589 10.2272C2.38902 10.2011 1.63016 9.98636 0.965806 9.62949V9.68897C0.965806 11.9955 2.66349 13.9205 4.91456 14.3587C4.50212 14.466 4.06722 14.5255 3.6173 14.5255C3.29938 14.5255 2.99193 14.495 2.69047 14.437C3.31734 16.3301 5.13503 17.7068 7.28864 17.7445C5.60444 19.0211 3.48083 19.7798 1.17428 19.7798C0.776864 19.7798 0.385412 19.7566 0 19.7145C2.1791 21.068 4.76613 21.8571 7.5466 21.8571C16.6034 21.8571 21.554 14.6009 21.554 8.30798L21.5375 7.69146C22.5048 7.02411 23.3416 6.18564 24 5.2311Z" fill="#DCF8DB"/>
</svg>