<svg width="100%" height="100%" viewBox="0 0 100 100" fill="none" xmlns="http://www.w3.org/2000/svg">
<circle cx="50" cy="50" r="49" fill="#121E2C" stroke="#07AB67" stroke-width="2" stroke-dasharray="6 6"/>
<circle cx="50" cy="50" r="40" fill="#07AB67" fill-opacity="0.3"/>
<circle cx="50" cy="50" r="35" fill="#07AB67"/>
<path d="M49.0692 61.2983C47.5636 61.2983 46.2212 61.0213 45.0423 60.4673C43.8704 59.9134 42.94 59.1499 42.2511 58.1768C41.5621 57.2038 41.2035 56.0888 41.1751 54.8317H45.6495C45.6992 55.6768 46.0543 56.3622 46.7148 56.8878C47.3754 57.4134 48.1602 57.6761 49.0692 57.6761C49.7937 57.6761 50.4329 57.5163 50.9869 57.1967C51.5479 56.87 51.9847 56.419 52.2972 55.8438C52.6168 55.2614 52.7766 54.5937 52.7766 53.8409C52.7766 53.0739 52.6133 52.3991 52.2866 51.8168C51.967 51.2344 51.5231 50.7798 50.9549 50.4531C50.3867 50.1264 49.7369 49.9595 49.0053 49.9524C48.3661 49.9524 47.7447 50.0838 47.141 50.3466C46.5444 50.6094 46.0792 50.968 45.7454 51.4226L41.6438 50.6875L42.6772 39.1818H56.0153V42.9531H46.4805L45.9158 48.4183H46.0437C46.4272 47.8786 47.006 47.4311 47.7802 47.076C48.5543 46.7209 49.4208 46.5433 50.3796 46.5433C51.6935 46.5433 52.8654 46.8523 53.8952 47.4702C54.9251 48.0881 55.7383 48.9368 56.3349 50.0163C56.9315 51.0888 57.2262 52.3246 57.2191 53.7237C57.2262 55.1939 56.8853 56.5007 56.1964 57.6442C55.5146 58.7805 54.5593 59.6754 53.3306 60.3288C52.109 60.9751 50.6886 61.2983 49.0692 61.2983Z" fill="white"/>
</svg>