<svg width="24" height="24" viewBox="0 0 24 24" fill="none" xmlns="http://www.w3.org/2000/svg">
<path d="M23.469 6.42901L23.499 6.62501C23.209 5.59601 22.426 4.80201 21.431 4.51301L21.41 4.50801C19.5391 4.00001 12.0101 4.00001 12.0101 4.00001C12.0101 4.00001 4.50024 3.99001 2.61026 4.50801C1.59627 4.80201 0.812284 5.59601 0.527288 6.60401L0.522288 6.62501C-0.176704 10.276 -0.181704 14.663 0.553287 18.572L0.522288 18.374C0.812284 19.403 1.59527 20.197 2.59026 20.486L2.61126 20.491C4.48024 21 12.0111 21 12.0111 21C12.0111 21 19.5201 21 21.411 20.491C22.426 20.197 23.21 19.403 23.495 18.395L23.5 18.374C23.818 16.676 24 14.722 24 12.726C24 12.653 24 12.579 23.999 12.505C24 12.437 24 12.356 24 12.275C24 10.278 23.818 8.32401 23.469 6.42901V6.42901ZM9.60818 16.151V8.85801L15.8741 12.51L9.60818 16.151Z" fill="#DCF8DB"/>
</svg>