<svg width="70" height="70" viewBox="0 0 70 70" fill="none" xmlns="http://www.w3.org/2000/svg">
<circle cx="35" cy="35" r="35" fill="#FFEFC1"/>
<path d="M24.3616 21.0005C21.3215 21.0005 18.8296 23.7242 18.8296 27.0471C18.8296 28.2452 19.1505 29.3745 19.7074 30.3174C16.9226 31.9671 15 35.0448 15 38.6745C15 39.0443 15.1345 39.3993 15.374 39.6611C15.6132 39.9226 15.938 40.0696 16.2767 40.0699H25.8511C24.1328 42.0769 23.085 44.6613 23.085 47.5116C23.085 47.8817 23.2195 48.2367 23.459 48.4982C23.6986 48.76 24.023 48.907 24.3617 48.907H45.6383C45.977 48.907 46.3014 48.76 46.541 48.4982C46.7805 48.2367 46.915 47.8818 46.915 47.5116C46.915 44.6614 45.8672 42.0769 44.1489 40.0699H53.7233C54.062 40.0696 54.3867 39.9226 54.626 39.6611C54.8655 39.3993 55 39.0444 55 38.6745C55 35.0408 53.0685 31.98 50.2793 30.3315C50.842 29.3851 51.1704 28.2515 51.1704 27.0466C51.1704 23.7237 48.6785 21 45.6384 21C42.5982 21 40.1064 23.7237 40.1064 27.0466C40.1064 27.6695 40.1966 28.282 40.359 28.8488C39.2185 26.9288 37.2381 25.6511 35.0001 25.6511C32.762 25.6511 30.7815 26.9288 29.6412 28.8488C29.8035 28.282 29.8938 27.6695 29.8938 27.0466C29.8938 23.7237 27.4019 21 24.3618 21L24.3616 21.0005ZM24.3616 23.7913C26.0218 23.7913 27.3403 25.2325 27.3403 27.0471C27.3403 28.8617 26.0217 30.3028 24.3616 30.3028C22.7015 30.3028 21.383 28.8616 21.383 27.0471C21.383 25.2325 22.7015 23.7913 24.3616 23.7913V23.7913ZM45.6382 23.7913C47.2984 23.7913 48.6169 25.2325 48.6169 27.0471C48.6169 28.8617 47.2984 30.3028 45.6382 30.3028C43.9781 30.3028 42.6596 28.8616 42.6596 27.0471C42.6596 25.2325 43.9781 23.7913 45.6382 23.7913V23.7913ZM34.9999 28.4425C37.1303 28.4425 38.8296 30.2999 38.8296 32.6283C38.8296 34.1798 38.075 35.5096 36.9414 36.2328C36.842 36.2779 36.7482 36.3366 36.6621 36.4074C36.1614 36.6679 35.5959 36.8142 34.9999 36.8142C32.8696 36.8142 31.1702 34.9568 31.1702 32.6283C31.1702 30.2999 32.8696 28.4425 34.9999 28.4425H34.9999ZM21.7157 32.3669C22.5018 32.8376 23.408 33.0936 24.3619 33.0936C25.3121 33.0936 26.2112 32.8338 26.9948 32.3669C27.5973 32.6242 28.1483 32.9681 28.6439 33.3697C28.7754 34.7175 29.2768 35.9493 30.0135 36.9596C29.7876 37.0618 29.567 37.164 29.3486 37.2795H17.7657C18.2187 35.0539 19.658 33.2481 21.7154 32.3669L21.7157 32.3669ZM43.006 32.3669C43.7896 32.8338 44.6888 33.0936 45.6389 33.0936C46.5848 33.0936 47.4774 32.8302 48.2587 32.3669C48.262 32.3646 48.2685 32.3688 48.2717 32.3669C50.3404 33.2455 51.7826 35.0438 52.2347 37.2795H40.6518C40.4334 37.164 40.2128 37.0618 39.9869 36.9596C40.7263 35.9457 41.2271 34.7086 41.3565 33.3551C41.8513 32.9567 42.4043 32.6209 43.0056 32.3669L43.006 32.3669ZM32.4346 39.0091C33.222 39.3913 34.0876 39.6051 35.0009 39.6051C35.9142 39.6051 36.7798 39.3913 37.5673 39.0091C41.0787 39.9526 43.6724 42.7441 44.243 46.1166H25.7589C26.3294 42.7441 28.9231 39.9526 32.4346 39.0091Z" fill="#121E2C"/>
</svg>