<svg width="60" height="60" viewBox="0 0 60 60" fill="none" xmlns="http://www.w3.org/2000/svg">
<path d="M4.2948 4.00013C1.94044 4.00013 0 5.94886 0 8.31327V51.6869C0 54.0513 1.94044 56 4.2948 56H42.831C45.1859 56 47.1263 54.0513 47.1263 51.6869V37.6531L59.5862 25.14C60.1379 24.5794 60.1379 23.6782 59.5862 23.1181L54.5754 18.0854C54.2723 17.7735 53.8444 17.6166 53.412 17.6587C53.0889 17.6998 52.7888 17.8502 52.5621 18.0854L47.1264 23.5448V8.31314C47.1264 5.94873 45.186 4 42.8311 4L4.2948 4.00013ZM4.2948 6.87547H42.831C43.6489 6.87547 44.2626 7.49177 44.2626 8.31314V12.6268H2.86299V8.31314C2.86299 7.49175 3.47692 6.87547 4.2948 6.87547ZM35.6726 8.31314C34.8816 8.31314 34.241 8.95702 34.241 9.75132C34.241 10.5451 34.8816 11.189 35.6726 11.189C36.4635 11.189 37.1041 10.5451 37.1041 9.75132C37.1041 8.957 36.4635 8.31314 35.6726 8.31314ZM40.6833 8.31314C39.8929 8.31314 39.2518 8.95702 39.2518 9.75132C39.2518 10.5451 39.8929 11.189 40.6833 11.189C41.4743 11.189 42.1149 10.5451 42.1149 9.75132C42.1149 8.957 41.4743 8.31314 40.6833 8.31314ZM2.86299 15.5021H44.2626V26.4205L33.2344 37.4963C32.9652 37.7636 32.8124 38.1267 32.8094 38.5073V43.5395C32.8094 44.3333 33.4501 44.9771 34.241 44.9771H39.2518C39.6302 44.9741 39.9923 44.8207 40.2584 44.5504L44.2625 40.5292V51.6871C44.2625 52.5085 43.6488 53.1248 42.831 53.1248H4.29477C3.47687 53.1248 2.86322 52.5085 2.86322 51.6871L2.86299 15.5021ZM7.73941 20.5348C7.35991 20.5524 7.00289 20.7209 6.74674 21.0032C6.49058 21.2855 6.35676 21.6586 6.37473 22.0397C6.39271 22.4213 6.56048 22.7799 6.8416 23.0366C7.12272 23.2939 7.49423 23.4283 7.87372 23.4102H33.6441C34.027 23.4157 34.3965 23.2668 34.6697 22.9965C34.9423 22.7262 35.0961 22.3571 35.0961 21.9725C35.0961 21.5874 34.9423 21.2188 34.6697 20.9485C34.3965 20.6782 34.027 20.5293 33.6441 20.5348H7.87372C7.82928 20.5323 7.78435 20.5323 7.73941 20.5348ZM53.5682 21.1185L56.5657 24.1293L54.6418 26.061L51.6443 23.0507L53.5682 21.1185ZM49.631 25.0726L52.6284 28.0829L38.6695 42.1014H35.6721V39.0906L49.631 25.0726ZM7.73928 27.9502C7.35978 27.9678 7.00277 28.1368 6.74661 28.4191C6.49046 28.7014 6.35663 29.074 6.3746 29.4556C6.39258 29.8367 6.56035 30.1953 6.84147 30.4525C7.12259 30.7093 7.4941 30.8437 7.87359 30.8256H25.0538C25.4368 30.8311 25.8063 30.6822 26.0789 30.4119C26.3521 30.1416 26.5059 29.773 26.5059 29.3879C26.5059 29.0033 26.3521 28.6342 26.0789 28.3639C25.8063 28.0936 25.4368 27.9447 25.0538 27.9502H7.87359C7.82915 27.9482 7.78422 27.9482 7.73928 27.9502ZM7.73928 36.5379C7.35978 36.5555 7.00277 36.7244 6.74661 37.0063C6.49046 37.2886 6.35663 37.6617 6.3746 38.0428C6.39258 38.4244 6.56035 38.783 6.84147 39.0402C7.12259 39.297 7.4941 39.4313 7.87359 39.4133H26.0734C26.4569 39.4188 26.8264 39.2699 27.099 38.9996C27.3721 38.7293 27.5254 38.3607 27.5254 37.9756C27.5254 37.5905 27.3721 37.2219 27.099 36.9516C26.8264 36.6813 26.4569 36.5324 26.0734 36.5379H7.87359C7.82915 36.5359 7.78422 36.5359 7.73928 36.5379ZM7.73928 43.9532C7.35978 43.9712 7.00277 44.1397 6.74661 44.4221C6.49046 44.7044 6.35663 45.077 6.3746 45.4586C6.39258 45.8397 6.56035 46.1987 6.84147 46.4555C7.12259 46.7127 7.4941 46.8466 7.87359 46.8291H25.0538C25.4368 46.8341 25.8063 46.6852 26.0789 46.4149C26.3521 46.1446 26.5059 45.776 26.5059 45.3909C26.5059 45.0063 26.3521 44.6372 26.0789 44.3674C25.8063 44.0971 25.4368 43.9477 25.0538 43.9532H7.87359C7.82915 43.9512 7.78422 43.9512 7.73928 43.9532Z" fill="#B8EDFC"/>
</svg>