<svg width="100%" height="100%" viewBox="0 0 100 100" fill="none" xmlns="http://www.w3.org/2000/svg">
<circle cx="50" cy="50" r="49" fill="#121E2C" stroke="#07AB67" stroke-width="2" stroke-dasharray="6 6"/>
<circle cx="50" cy="50" r="40" fill="#07AB67" fill-opacity="0.3"/>
<circle cx="50" cy="50" r="35" fill="#07AB67"/>
<path d="M41.8202 61V57.6761L49.5866 50.4851C50.2471 49.8459 50.801 49.2706 51.2485 48.7592C51.703 48.2479 52.0475 47.7472 52.2819 47.2571C52.5162 46.7599 52.6334 46.2237 52.6334 45.6484C52.6334 45.0092 52.4878 44.4588 52.1966 43.9972C51.9055 43.5284 51.5077 43.1697 51.0035 42.9212C50.4992 42.6655 49.9275 42.5376 49.2883 42.5376C48.6206 42.5376 48.0383 42.6726 47.5411 42.9425C47.0439 43.2124 46.6604 43.5994 46.3905 44.1037C46.1206 44.608 45.9857 45.2081 45.9857 45.9041H41.6072C41.6072 44.4766 41.9303 43.2372 42.5766 42.1861C43.2229 41.1349 44.1285 40.3217 45.2932 39.7464C46.458 39.1712 47.8003 38.8835 49.3202 38.8835C50.8827 38.8835 52.2428 39.1605 53.4005 39.7145C54.5653 40.2614 55.4708 41.0213 56.1171 41.9943C56.7634 42.9673 57.0866 44.0824 57.0866 45.3395C57.0866 46.1634 56.9232 46.9766 56.5965 47.7791C56.2769 48.5817 55.7052 49.473 54.8813 50.4531C54.0574 51.4261 52.8962 52.5945 51.3976 53.9581L48.2123 57.0795V57.2287H57.3742V61H41.8202Z" fill="white"/>
</svg>