<svg viewBox="0 0 79 70" width="60px" height="60" fill="none" style="color: #dcf8db;" xmlns="http://www.w3.org/2000/svg">
<path fill-rule="evenodd" clip-rule="evenodd" d="M38.9966 0C29.8592 0 22.4001 7.45906 22.4001 16.5965C22.4001 25.7337 29.8591 33.1929 38.9966 33.1929C48.1338 33.1935 55.593 25.7344 55.593 16.5965C55.593 7.4592 48.134 0 38.9966 0ZM26.6502 16.597C26.6502 9.76292 32.1625 4.25007 38.9966 4.25007C45.8306 4.25007 51.3429 9.76293 51.3429 16.5965C51.3429 23.4306 45.8306 28.9434 38.9966 28.9434C32.1625 28.9434 26.6502 23.4306 26.6502 16.597ZM38.1046 6.24241C37.8654 6.24241 37.6413 6.34976 37.4826 6.48864C37.3137 6.63649 37.155 6.8774 37.155 7.19193V8.60733C34.8448 9.16422 33.0899 11.3195 33.3473 13.8937L33.3477 13.8976C33.6225 16.4626 35.8997 18.3564 38.4286 18.3564H39.6445C40.3895 18.3564 41.0229 18.9862 40.9666 19.7971C40.9129 20.4209 40.3229 20.9164 39.5631 20.9164H37.9418C37.5419 20.9164 37.3153 20.6913 37.2681 20.4329C37.2498 20.168 37.1006 19.9687 36.9262 19.8525C36.7562 19.7393 36.5634 19.7005 36.4019 19.7005H34.5373C34.292 19.7005 34.0453 19.7848 33.8587 19.9714C33.6721 20.1581 33.5858 20.4047 33.5858 20.6501L33.5899 20.6972C33.7607 22.6599 35.2602 24.2271 37.1552 24.5441V25.9196C37.1552 26.4589 37.6437 26.7877 38.1047 26.7877H39.9692C40.2275 26.7877 40.4399 26.664 40.577 26.5268C40.714 26.3896 40.8373 26.1773 40.8373 25.9196V24.4949C42.797 23.9853 44.3892 22.3534 44.644 20.2286L44.6454 20.2146C44.919 17.3017 42.5605 14.7552 39.7261 14.7552H38.3479C37.6029 14.7552 36.9694 14.1254 37.0258 13.3145C37.0794 12.6907 37.6695 12.1952 38.4293 12.1952H40.0506C40.4504 12.1952 40.6771 12.4203 40.7243 12.6787C40.7425 12.9435 40.8918 13.1428 41.0661 13.259C41.2362 13.3723 41.429 13.411 41.5905 13.411H43.455C43.7004 13.411 43.947 13.3268 44.1336 13.1401C44.3203 12.9535 44.4066 12.7069 44.4066 12.4615L44.4025 12.4143C44.2316 10.4517 42.7322 8.88443 40.8372 8.56749V7.19193C40.8372 6.95824 40.7342 6.74487 40.627 6.60197C40.5316 6.47469 40.3096 6.24241 39.9691 6.24241H38.1046ZM73.3723 20.8605C71.1629 20.1548 68.4926 20.598 66.6319 22.8134C66.2052 23.3253 65.846 23.8586 65.5765 24.5668C65.3718 24.9804 64.9241 25.978 64.3933 27.1607L64.3926 27.162C64.2585 27.4609 64.1191 27.7715 63.9769 28.0876L63.908 28.1908L63.838 28.1674C61.3568 27.0959 59.324 26.8748 57.6663 27.6109L57.6543 27.6166C56.0018 28.3991 54.4824 29.9346 53.1743 31.5678C52.5182 32.3065 51.945 33.0436 51.3833 33.766L51.376 33.7753L50.4455 34.9687C49.9407 35.6149 49.3578 36.3586 49.0352 36.7622C47.7476 38.2912 46.5023 39.7835 45.6646 41.206C44.8024 42.6305 44.0389 45.1827 43.4611 47.9403C42.8784 50.7211 42.4688 53.7908 42.3457 56.2955C42.2636 58.0225 42.3454 61.2048 42.4259 63.9504C42.4261 64.527 42.4467 65.0609 42.4668 65.5361L42.4735 65.6908C42.4913 66.1074 42.5068 66.4677 42.5068 66.7801C42.5068 68.561 43.9881 69.9188 45.7262 69.9188H57.4008C58.2813 69.9188 59.1477 69.5322 59.7318 68.9481L59.7347 68.9451L59.7386 68.9411L59.748 68.9312L59.7726 68.9037C59.7908 68.8825 59.8151 68.8521 59.8402 68.8144C59.8607 68.7836 59.8965 68.7264 59.9256 68.649C60.3705 68.0618 60.6211 67.2578 60.6211 66.5369L60.312 60.7367C64.0537 58.1331 67.7317 54.951 69.8817 52.3931L69.9472 52.3304L69.9768 52.2953C71.5855 50.3905 73.0305 47.3717 74.3448 43.3473C75.6627 39.3119 76.8637 34.2182 77.9607 28.1242L77.9619 28.1174C78.495 24.9212 76.5413 21.83 73.3723 20.8605ZM11.443 22.8135C9.58227 20.5988 6.91365 20.1551 4.7046 20.86C1.45926 21.8277 -0.50708 24.9195 0.114274 28.1278C1.21136 34.2622 2.43273 39.3549 3.76064 43.3794C5.08555 47.3949 6.52971 50.3887 8.09293 52.2901L8.10975 52.3106L8.19262 52.3934C10.342 54.9505 14.0188 58.1313 17.7592 60.735L17.3732 66.5824V66.6182C17.3732 67.3027 17.5339 68.1581 18.1027 68.785V68.8461L18.2336 68.9989C18.8506 69.7192 19.7511 70 20.5927 70H32.2673C34.0159 70 35.4867 68.5513 35.4867 66.8613C35.4867 66.1322 35.4874 65.176 35.5667 64.0622L35.5674 64.0395C35.648 61.293 35.7306 58.0236 35.6479 56.3752L35.6474 56.3675C35.4835 53.8265 35.0541 50.7402 34.4614 47.95C33.8737 45.1837 33.1102 42.6315 32.2482 41.2069C31.4106 39.7843 30.1652 38.2914 28.8775 36.7629C28.5545 36.359 27.9718 35.6154 27.467 34.9693L26.5356 33.7746C26.2572 33.4167 25.9769 33.0361 25.6927 32.6504L25.6676 32.6163C25.3927 32.2431 25.1135 31.864 24.8329 31.5035L24.8194 31.4875C23.512 29.935 21.9976 28.4076 20.3601 27.5456L20.3381 27.5353C18.7491 26.7874 16.6191 27.0181 14.1333 28.0954L14.1078 28.1082C13.7427 27.2579 13.379 26.49 13.0884 25.8788L13.0867 25.8751C12.7833 25.237 12.583 24.8146 12.5156 24.6125L12.5086 24.5938C12.2934 24.0199 11.9534 23.5384 11.6798 23.151C11.607 23.0479 11.539 22.9515 11.4792 22.8618L11.4624 22.8367L11.443 22.8135ZM5.90989 25.1446C6.48788 24.9746 6.99376 25.0174 7.4117 25.2225C7.83154 25.4287 8.21714 25.8257 8.50027 26.4615C8.62747 26.7582 9.25521 28.1755 9.86098 29.5181C10.1653 30.1926 10.4655 30.8515 10.6952 31.3426C10.8097 31.5874 10.9084 31.7943 10.982 31.9416C11.0182 32.014 11.0517 32.0789 11.0797 32.1286C11.0903 32.1474 11.1045 32.1719 11.1208 32.1969C11.4021 32.8493 12.2861 34.8427 13.6243 37.44C14.6282 39.3643 17.2543 42.7224 19.122 44.8349L19.4372 45.2301L19.4532 45.2485C20.2174 46.1215 21.6346 46.2383 22.5173 45.3557C22.9414 44.9316 23.1392 44.4142 23.2338 43.9431L23.2445 43.8901V43.836C23.2445 43.3127 23.0441 42.7117 22.7303 42.2935L22.5357 42.0487L23.64 37.0108C23.7706 37.1748 23.9169 37.358 24.0707 37.5496C24.6026 38.2119 25.236 38.9889 25.6136 39.4095C26.837 40.8776 27.9335 42.2137 28.5522 43.2962L28.5562 43.303C29.0336 44.1107 29.6477 46.0372 30.1856 48.4934C30.7167 50.9182 31.1572 53.7815 31.3184 56.4195V57.5655L20.7344 57.6399L20.7176 57.6231C20.5736 57.4789 20.4441 57.3493 20.2258 57.2336C16.7817 54.8268 13.3515 51.7921 11.4466 49.5721C10.6026 48.4954 9.49488 46.6076 8.21363 43.1661C7.0102 39.7147 5.63902 34.6392 4.34697 27.4511C4.16129 26.2569 4.96006 25.4158 5.90568 25.1459L5.90989 25.1446ZM23.6129 36.9767C23.5253 36.8666 23.4453 36.7658 23.3756 36.6777L23.1628 36.4086L23.0855 36.3104C22.9492 36.1362 22.8089 35.9558 22.669 35.7757C22.0507 34.9802 21.3995 34.1422 20.7341 33.3958C19.9232 32.4859 19.1498 31.7817 18.4611 31.4593C18.3568 31.4347 18.1961 31.4269 17.9752 31.4505C17.7399 31.4755 17.4758 31.5315 17.2071 31.6035C16.8013 31.7123 16.4304 31.8438 16.1535 31.942C16.0761 31.9694 16.0061 31.9942 15.9446 32.0152L15.9813 32.1008C16.6243 33.4671 17.1905 34.6798 17.5175 35.4154C18.2185 36.8101 20.361 39.6751 22.3701 41.8451L22.397 41.8741L22.409 41.8892L22.2455 42.5563L22.2963 42.6199C22.3264 42.66 22.3552 42.7025 22.3826 42.7471L22.5357 42.0487L22.409 41.8892L23.6129 36.9767ZM23.7771 36.3065L23.6129 36.9767C23.6219 36.9879 23.6309 36.9993 23.64 37.0108L23.7907 36.3236C23.7861 36.3178 23.7816 36.3121 23.7771 36.3065ZM8.50027 26.4615C8.50076 26.4626 8.50125 26.4637 8.50174 26.4648L8.99895 26.244L8.49885 26.4582C8.49931 26.4593 8.49979 26.4604 8.50027 26.4615ZM69.5735 26.4626C69.857 25.8265 70.2427 25.4293 70.6626 25.2232C71.0804 25.018 71.5859 24.9762 72.1638 25.1462L72.1957 25.1536C73.0198 25.3431 73.8342 26.1621 73.6462 27.3703C72.3518 34.6492 71.0616 39.6384 69.7815 43.0797L69.7777 43.0902C68.5691 46.5554 67.4632 48.4959 66.567 49.4665L66.5482 49.4892C64.6528 51.7791 61.1461 54.7363 57.7624 57.1555C57.5391 57.2785 57.346 57.4716 57.2726 57.545L57.2588 57.5588L57.2559 57.5617H46.6754V56.4195C46.8363 53.7812 47.2768 50.918 47.8079 48.4933C48.3459 46.0372 48.9601 44.1108 49.4375 43.3031L49.4415 43.2962C50.0161 42.2908 51.0028 41.0674 52.1208 39.7215L61.5778 31.8063C61.7685 31.8816 61.9242 31.9518 62.0218 32.0007L62.0493 32.0144L62.012 32.1012C61.3688 33.468 60.8033 34.6806 60.4758 35.416C59.776 36.8078 57.6362 39.5898 55.6159 41.8524L55.2909 42.2591C54.8817 42.6798 54.6548 43.2332 54.7494 43.883C54.7668 44.4774 55.1142 44.997 55.4754 45.3575L55.5022 45.381C56.3592 46.1312 57.739 46.1335 58.5963 45.2753L58.6176 45.254L58.9484 44.8401C60.9028 42.7208 63.4465 39.4452 64.4525 37.4352C65.8315 34.758 66.7266 32.7259 66.9776 32.1406L68.1808 29.5217C68.7945 28.1836 69.445 26.7611 69.5735 26.4626ZM61.2818 31.6962C61.3868 31.7329 61.4864 31.7702 61.5778 31.8063L62.0486 31.4122C62.0057 31.3934 61.9596 31.3736 61.9107 31.3533L61.2818 31.6962ZM56.5123 34.2967C56.0131 34.8974 55.5258 35.5207 55.0682 36.106L54.9103 36.3079L54.831 36.4086L54.6182 36.6778C54.4391 36.9039 54.1926 37.214 53.9231 37.5496C53.3912 38.2119 52.7579 38.9889 52.3802 39.4096C52.293 39.5142 52.2065 39.6182 52.1208 39.7215L50.006 41.4914C50.5796 40.7278 51.2611 39.9044 51.9701 39.0533C52.6996 38.2423 54.4832 35.9724 54.4832 35.9724L54.6432 35.7678C54.8437 35.5113 55.051 35.2461 55.2635 34.9776L56.5123 34.2967ZM56.5123 34.2967C56.7684 33.9886 57.0276 33.6864 57.2875 33.3983C58.1177 32.4781 58.9009 31.7653 59.5617 31.4464C59.6582 31.4115 59.8147 31.3912 60.0386 31.4067C60.266 31.4225 60.5236 31.4723 60.7868 31.5428C60.9583 31.5887 61.1261 31.6418 61.2818 31.6962L56.5123 34.2967ZM21.815 65.5878L22.0019 61.9737H31.2281L31.1655 65.5878H21.815ZM46.8285 65.5879L46.7664 61.9737H55.9926L56.1795 65.5879H46.8285Z" fill="currentColor"/>
</svg>