<svg width="70" height="70" viewBox="0 0 70 70" fill="none" xmlns="http://www.w3.org/2000/svg">
<circle cx="35" cy="35" r="35" fill="#DCF8DB"/>
<path fill-rule="evenodd" clip-rule="evenodd" d="M32.5629 19.7998C32.0958 19.7998 31.717 20.1786 31.717 20.6457V23.6743H22.3583C20.3962 23.6743 18.8 25.2705 18.8 27.2327V43.7663C18.8 45.7284 20.3962 47.3247 22.3583 47.3247H31.717V47.7706C31.717 48.7276 30.939 49.5066 29.9822 49.5081L29.9794 49.5081C29.5124 49.5081 29.1337 49.8869 29.1337 50.3539C29.1337 50.821 29.5125 51.1998 29.9796 51.1998H39.0209C39.2336 51.1998 39.4283 51.121 39.5769 50.9914C39.7542 50.8366 39.8668 50.6083 39.8668 50.3539C39.8668 50.179 39.8134 50.016 39.7222 49.8809C39.5705 49.6564 39.313 49.5081 39.0209 49.5081H39.0183C38.0616 49.5066 37.2835 48.7276 37.2835 47.7706V47.3247H46.6415C48.6036 47.3247 50.1998 45.7284 50.1998 43.7663V41.3269L50.2 41.3141L50.2 41.3095L50.1998 41.2968V27.2327C50.1998 25.3817 48.7794 23.8564 46.9713 23.6894V20.6457C46.9713 20.1786 46.5925 19.7998 46.1255 19.7998H32.5629ZM33.4089 22.3829V21.4918H45.2795V22.3829H33.4089ZM33.4089 30.1334V24.0746H45.2795V24.4923L45.2791 24.5031L45.279 24.5184L45.279 24.5202C45.279 24.5297 45.2792 24.5393 45.2795 24.5488V30.1334H33.4089ZM35.1462 24.9657C34.6791 24.9657 34.3003 25.3445 34.3003 25.8115C34.3003 26.2786 34.6792 26.6574 35.1462 26.6574H40.3128C40.7799 26.6574 41.1587 26.2786 41.1587 25.8115C41.1587 25.3445 40.7799 24.9657 40.3128 24.9657H35.1462ZM20.4917 27.2327C20.4917 26.2035 21.3291 25.366 22.3583 25.366H31.717V30.9792C31.717 31.4463 32.0958 31.8251 32.5629 31.8251H46.1255C46.5925 31.8251 46.9713 31.4462 46.9713 30.9792V25.3952C47.8438 25.5513 48.5082 26.3161 48.5082 27.2327V40.4659H20.4917V27.2327ZM22.2296 26.9032C21.7625 26.9032 21.3838 27.282 21.3838 27.7491V37.4366C21.3838 37.9037 21.7626 38.2825 22.2296 38.2825H29.9796C30.4466 38.2825 30.8254 37.904 30.8254 37.4369V30.0741C30.8254 29.8497 30.7363 29.6346 30.5777 29.476L28.2527 27.1509C28.0941 26.9923 27.879 26.9032 27.6546 26.9032H22.2296ZM35.1456 27.549C34.6785 27.549 34.2997 27.9278 34.2997 28.3949C34.2997 28.862 34.6786 29.2408 35.1456 29.2408H43.5415C44.0086 29.2408 44.3874 28.862 44.3874 28.3949C44.3874 27.9278 44.0086 27.549 43.5415 27.549H35.1456ZM23.0756 36.5908L23.0759 28.5947H27.3046L29.1342 30.4243V36.5908H23.0756ZM24.8126 30.778C24.3456 30.778 23.9668 31.1568 23.9668 31.6238C23.9668 32.0909 24.3456 32.4697 24.8126 32.4697H26.1043C26.5714 32.4697 26.9502 32.0909 26.9502 31.6238C26.9502 31.1568 26.5713 30.778 26.1043 30.778H24.8126ZM24.8129 33.3622C24.3459 33.3622 23.9671 33.741 23.9671 34.2081C23.9671 34.6752 24.3459 35.054 24.8129 35.054H27.3963C27.8633 35.054 28.2421 34.6752 28.2421 34.2081C28.2421 33.741 27.8633 33.3622 27.3963 33.3622H24.8129ZM33.8548 34.0078C33.3878 34.0078 33.009 34.3866 33.009 34.8537C33.009 35.3208 33.3878 35.6995 33.8548 35.6995H46.1255C46.5925 35.6995 46.9713 35.3207 46.9713 34.8537C46.9713 34.3866 46.5925 34.0078 46.1255 34.0078H33.8548ZM33.8548 36.5912C33.3878 36.5912 33.009 36.97 33.009 37.437C33.009 37.9041 33.3878 38.2829 33.8548 38.2829H46.1255C46.5925 38.2829 46.9713 37.9041 46.9713 37.437C46.9713 36.97 46.5925 36.5912 46.1255 36.5912H33.8548ZM20.4917 43.7663V42.1577H48.5082V43.7663C48.5082 44.7956 47.6707 45.633 46.6415 45.633H36.4451L36.4387 45.633L36.4297 45.633H32.5704L32.564 45.633L32.555 45.633H22.3583C21.3291 45.633 20.4917 44.7956 20.4917 43.7663ZM34.1774 43.0499C33.7103 43.0499 33.3315 43.4287 33.3315 43.8958C33.3315 44.3629 33.7103 44.7417 34.1774 44.7417H34.8232C35.2903 44.7417 35.6691 44.3629 35.6691 43.8958C35.6691 43.4287 35.2903 43.0499 34.8232 43.0499H34.1774ZM33.4087 47.7706V47.3247H35.5917V47.7706C35.5917 48.4041 35.7645 48.9983 36.0652 49.5081H32.9352C33.236 48.9983 33.4087 48.4041 33.4087 47.7706Z" fill="#121E2C"/>
</svg>