<svg width=" 60" height=" 60" viewBox="0 0 70 70" fill="none" style="color: #ffefc1;" xmlns="http://www.w3.org/2000/svg">
<g clip-path="url(#clip0_5702_317)">
<path fill-rule="evenodd" clip-rule="evenodd" d="M62.6455 0C65.1937 0 67.2615 2.0654 67.2615 4.61598V7.25369C67.2615 9.46607 65.7027 11.3163 63.6242 11.7656V52.6515H65.2841C66.3763 52.6515 67.2624 53.5376 67.2624 54.6298C67.2624 55.722 66.3763 56.6081 65.2841 56.6081H61.6979C61.6807 56.6086 61.6633 56.6088 61.6459 56.6088H35.6116V58.4692C37.9149 59.2851 39.5662 61.4836 39.5662 64.0652C39.5662 67.3411 36.9073 70 33.6314 70C30.3555 70 27.6966 67.3411 27.6966 64.0652C27.6966 61.4821 29.3498 59.2826 31.655 58.4678V56.6088H5.62107C5.60368 56.6088 5.58634 56.6086 5.56906 56.6081H1.97923C0.887052 56.6081 0.000949436 55.722 0.000949436 54.6298C0.000949436 53.5376 0.887052 52.6515 1.97923 52.6515H3.6428V11.7668C1.5615 11.3196 0 9.46803 0 7.25369V4.61598C0 2.0654 2.06781 0 4.61598 0H62.6455ZM62.6455 3.95656C63.0094 3.95656 63.3049 4.24918 63.3049 4.61598V7.25369C63.3049 7.61756 63.0094 7.91311 62.6455 7.91311H4.61598C4.25211 7.91311 3.95656 7.61756 3.95656 7.25369V4.61598C3.95656 4.24918 4.25211 3.95656 4.61598 3.95656H62.6455ZM7.59935 52.6515H59.6676V11.8703H7.59935V52.6515ZM35.6097 64.0652C35.6097 62.973 34.7236 62.0869 33.6314 62.0869C32.5392 62.0869 31.6531 62.973 31.6531 64.0652C31.6531 65.1574 32.5392 66.0435 33.6314 66.0435C34.7236 66.0435 35.6097 65.1574 35.6097 64.0652ZM32.7569 48.1354C33.3096 48.4085 33.9653 48.4115 34.5286 48.1286C34.6525 48.0657 34.7679 47.9908 34.8736 47.9057C38.7466 45.0777 42.6016 43.7179 46.4748 43.9515L46.4736 43.9523C47.7288 44.05 48.9717 43.6226 49.9026 42.7706C50.847 41.9056 51.3851 40.684 51.3851 39.4022C51.4381 34.5669 51.4381 25.1054 51.4381 20.8403C51.441 18.5111 49.7054 16.5434 47.392 16.2561L47.3565 16.2523L47.3208 16.2485C42.7866 15.8528 38.2496 17.1399 33.7208 20.1467C33.6913 20.1664 33.6621 20.1863 33.6332 20.2066C33.6057 20.1874 33.578 20.1685 33.55 20.1499C29.0189 17.1401 24.4817 15.853 19.9476 16.2487L19.8763 16.2563C17.563 16.5436 15.8279 18.5113 15.8302 20.8405V20.8412C15.8302 25.1059 15.8302 34.5668 15.8832 39.425C15.8832 40.6831 16.4214 41.9049 17.3657 42.7698C18.2966 43.6217 19.5395 44.0492 20.7948 43.9514L20.7937 43.953C24.6896 43.7187 28.5672 45.0953 32.4632 47.9572C32.5456 48.0176 32.6317 48.0709 32.7206 48.1171C32.727 48.1204 32.7335 48.1237 32.7399 48.127C32.7456 48.1299 32.7512 48.1327 32.7569 48.1354ZM31.6567 40.3901C31.6565 41.2335 31.6564 42.0237 31.6563 42.7357C27.956 40.6811 24.25 39.7822 20.555 40.0035L20.4997 40.0088C20.3307 40.0218 20.1623 39.9664 20.0381 39.8505C19.9115 39.7368 19.8403 39.5731 19.8403 39.4018C19.7873 34.5347 19.7873 25.0944 19.7873 20.8399V20.8375C19.7873 20.5131 20.0245 20.2358 20.3413 20.1858C24.0211 19.8772 27.6845 21.0012 31.3591 23.4434C31.5357 23.5594 31.644 23.7625 31.644 23.9763C31.6507 27.0849 31.6555 34.8768 31.6567 40.3901ZM46.9258 20.185C43.2489 19.8765 39.585 20.9999 35.9135 23.4398C35.7339 23.5587 35.6262 23.7619 35.6262 23.9803C35.6185 27.5625 35.6132 37.369 35.6132 42.7351C39.3137 40.6803 43.0201 39.7806 46.7151 40.0026C46.7333 40.0026 46.7522 40.005 46.7704 40.0079C46.9394 40.0209 47.1078 39.9655 47.232 39.8495C47.3586 39.7359 47.4299 39.5728 47.4299 39.3803C47.4829 34.5347 47.4829 25.0943 47.4829 20.8395V20.8371C47.4829 20.5127 47.2456 20.236 46.9265 20.1854L46.9258 20.185Z" fill="currentColor"/>
</g>
<defs>
<clipPath id="clip0_5702_317">
<rect width="70.0005" height="70" fill="currentColor"/>
</clipPath>
</defs>
</svg>