<svg width="24" height="24" viewBox="0 0 18 18" fill="none" xmlns="http://www.w3.org/2000/svg">
<g clip-path="url(#clip0_5702_4912)">
<path d="M9 18C13.9706 18 18 13.9706 18 9C18 4.02944 13.9706 0 9 0C4.02944 0 0 4.02944 0 9C0 13.9706 4.02944 18 9 18Z" fill="#007AB9"/>
<path d="M14.3776 9.72431V13.4348H12.2263V9.97298C12.2263 9.10375 11.9157 8.51015 11.1368 8.51015C10.5424 8.51015 10.1893 8.90979 10.0334 9.29675C9.97672 9.43505 9.96212 9.62709 9.96212 9.82105V13.4347H7.8107C7.8107 13.4347 7.83958 7.57145 7.8107 6.96453H9.96228V7.88141C9.95795 7.88863 9.95185 7.89569 9.948 7.90259H9.96228V7.88141C10.2482 7.4415 10.758 6.8126 11.9011 6.8126C13.3165 6.8126 14.3776 7.73734 14.3776 9.72431ZM5.56014 3.8457C4.82423 3.8457 4.34277 4.32877 4.34277 4.96344C4.34277 5.58464 4.81028 6.08167 5.53191 6.08167H5.54586C6.29621 6.08167 6.76275 5.58464 6.76275 4.96344C6.74847 4.32877 6.29621 3.8457 5.56014 3.8457ZM4.47064 13.4348H6.62125V6.96453H4.47064V13.4348Z" fill="#F1F2F2"/>
</g>
<defs>
<clipPath id="clip0_5702_4912">
<rect width="18" height="18" fill="white"/>
</clipPath>
</defs>
</svg>