<svg width=" 60" height=" 60" viewBox="0 0 70 70" fill="none" style="color: #b8edfc;" xmlns="http://www.w3.org/2000/svg">
<g clip-path="url(#clip0_5636_4225)">
<path d="M35.0001 69.4695C32.176 69.4658 29.4687 68.3513 27.4715 66.3693C25.4749 64.3874 24.3512 61.7006 24.3481 58.898C24.3364 58.8211 23.975 54.0797 26.4329 51.1407C26.7062 50.8173 27.1032 50.6213 27.5284 50.6003C27.9535 50.5792 28.368 50.7351 28.6726 51.0301L31.2882 53.5873C33.2052 51.9839 34.4121 49.6991 34.6509 47.2225C34.6711 46.5836 35.0946 46.0264 35.7077 45.8315C36.3212 45.6367 36.9915 45.8458 37.3827 46.3535C39.0104 48.4672 40.1552 50.9079 40.7365 53.5052C41.8457 53.0232 42.4413 51.7492 43.7012 52.0183C44.2011 52.1363 44.6077 52.4971 44.7818 52.9769C45.3858 54.8926 45.6798 56.8914 45.6522 58.8982C45.649 61.7008 44.5254 64.3875 42.5288 66.3695C40.5316 68.3515 37.8243 69.4661 35.0002 69.4697L35.0001 69.4695ZM27.947 54.5606V54.56C27.4911 55.9173 27.3011 57.3485 27.3871 58.7768C28.3823 70.7694 45.0557 67.7767 42.3872 56.0453C41.5423 56.5462 40.6649 56.9907 39.7611 57.3768C39.2256 57.5917 38.6142 57.4895 38.1789 57.1129C37.7437 56.7358 37.559 56.148 37.7012 55.5923C37.8843 54.0665 37.5622 52.5232 36.783 51.1949C35.7141 53.4534 34.0832 55.4044 32.044 56.8639C31.4432 57.2684 30.6386 57.1946 30.1221 56.6885L27.947 54.5606ZM65.4351 21.1424H60.8695C59.6595 21.144 58.4987 21.6217 57.6432 22.4708C56.7871 23.3204 56.3057 24.4718 56.3046 25.6732V27.1832C56.3078 28.4063 56.6846 29.5993 57.3863 30.6047C58.0879 31.6102 59.081 32.3803 60.2337 32.8132L55.9613 42.3546C51.5237 37.6074 44.235 36.5519 41.0875 36.3159V33.8388C44.6631 32.8102 47.7956 30.637 49.9976 27.6579C52.1991 24.6788 53.3466 21.0608 53.2612 17.3671C53.2612 9.9115 51.368 0 35.0003 0C18.6325 0 16.7393 9.91163 16.7393 17.3671C16.6538 21.0609 17.8013 24.6789 20.0029 27.6579C22.2049 30.637 25.3374 32.8101 28.913 33.8388V36.3154C25.7651 36.5513 18.476 37.6069 14.0393 42.3541L9.76681 32.8132C10.9196 32.3803 11.9126 31.6102 12.6143 30.6047C13.3159 29.5993 13.6927 28.4062 13.6959 27.1832V25.6732C13.6948 24.4718 13.2135 23.3204 12.3574 22.4708C11.5018 21.6217 10.341 21.144 9.13098 21.1424H4.56546C3.35483 21.144 2.19466 21.6217 1.33854 22.4708C0.482979 23.3204 0.00160327 24.4718 0 25.6732V48.6697C0.00530737 50.2057 0.479785 51.7041 1.36142 52.9666C2.24299 54.2296 3.4897 55.1967 4.93699 55.7413L12.1743 58.4344V67.9584C12.1743 68.7927 12.8557 69.4689 13.6959 69.4689C14.5366 69.4689 15.2175 68.7926 15.2175 67.9584V57.3874C15.2175 56.7579 14.8247 56.1944 14.2308 55.9732L6.00701 52.9131C5.13818 52.587 4.38988 52.0066 3.86066 51.2486C3.33152 50.4912 3.0465 49.5916 3.04385 48.6699V33.2242H6.6205L12.3048 45.9189C12.5356 46.434 13.0356 46.7785 13.6024 46.8127C14.1672 46.838 14.7016 46.5589 15.001 46.0827C18.5139 40.272 27.4139 39.4124 29.8258 39.2872L33.9242 43.3528C34.2092 43.6362 34.5966 43.7952 35 43.7952C35.4034 43.7952 35.7908 43.6361 36.0758 43.3528L40.1742 39.2866C42.5865 39.412 51.4865 40.2716 54.999 46.0822V46.0827C55.2968 46.5604 55.8323 46.8401 56.3976 46.8127C56.9644 46.7785 57.4644 46.434 57.6952 45.9189L63.3795 33.2242H66.9561V48.6698C66.9535 49.5916 66.6685 50.4912 66.1393 51.2486C65.6102 52.0065 64.8618 52.587 63.993 52.913L55.7692 55.9732C55.1753 56.1944 54.7825 56.758 54.7825 57.3874V67.9584C54.7825 68.7927 55.4635 69.4689 56.3041 69.4689C57.1443 69.4689 57.8257 68.7926 57.8257 67.9584V58.4344L65.063 55.7413C66.5103 55.1966 67.7571 54.2296 68.6386 52.9666C69.5201 51.7041 69.9946 50.2055 70 48.6697V25.6732C69.9984 24.4718 69.517 23.3204 68.6615 22.4708C67.8054 21.6217 66.6451 21.144 65.4345 21.1424L65.4351 21.1424ZM3.04336 30.2034V25.6731C3.04389 24.8393 3.72483 24.1636 4.56497 24.1631H9.13049C9.97013 24.1636 10.651 24.8394 10.6521 25.6731V27.1832C10.651 27.9838 10.3299 28.7517 9.7594 29.3179C9.18885 29.8841 8.41556 30.2028 7.6083 30.2033L3.04336 30.2034ZM25.8696 22.6525V18.1222C25.8707 16.9208 26.352 15.7694 27.2081 14.9198C28.0637 14.0708 29.2245 13.593 30.4345 13.5915H39.5654C40.7755 13.593 41.9362 14.0708 42.7918 14.9198C43.6479 15.7694 44.1293 16.9208 44.1303 18.1222V22.653V22.6525C44.1303 25.8902 42.39 28.8813 39.5654 30.4999C36.7402 32.1185 33.2596 32.1185 30.4345 30.4999C27.6098 28.8813 25.8695 25.8901 25.8695 22.6525L25.8696 22.6525ZM19.7825 17.367C19.7825 4.7586 27.0972 3.02028 34.9999 3.02028C42.9027 3.02028 50.2174 4.75847 50.2174 17.367C50.2769 21.0872 48.8381 24.6767 46.2199 27.3397C46.8509 25.8565 47.1757 24.2627 47.1741 22.6525V18.1222C47.1715 16.1201 46.369 14.2009 44.9429 12.7856C43.5162 11.3698 41.5822 10.5735 39.5654 10.5713H30.4345C28.4176 10.5734 26.4836 11.3698 25.057 12.7856C23.6309 14.2009 22.8285 16.1201 22.8257 18.1222V22.653V22.6525C22.8241 24.2626 23.149 25.8565 23.78 27.3397C21.1618 24.6767 19.7231 21.0872 19.7824 17.367L19.7825 17.367ZM34.9999 40.1491L31.9567 37.129V34.5033C33.9736 34.8104 36.0264 34.8104 38.0433 34.5033V37.1285L34.9999 40.1491ZM62.3914 30.2027C61.5842 30.2022 60.8108 29.8835 60.2403 29.3173C59.6698 28.7511 59.3487 27.9832 59.3476 27.1826V25.6725C59.3487 24.8387 60.0296 24.163 60.8692 24.1625H65.4347C66.2749 24.163 66.9558 24.8388 66.9564 25.6725V30.2033L62.3914 30.2027Z" fill="currentColor"/>
</g>
<defs>
<clipPath id="clip0_5636_4225">
<rect width="70" height="70" fill="currentColor"/>
</clipPath>
</defs>
</svg>