<svg width="24" height="24" viewBox="0 0 24 24" fill="none" xmlns="http://www.w3.org/2000/svg">
<path d="M19.4609 4.49591C18.0042 3.79859 16.427 3.29248 14.7841 3.00005C14.7697 2.99958 14.7554 3.00235 14.7421 3.00818C14.7289 3.01401 14.717 3.02276 14.7074 3.03379C14.5103 3.40495 14.2803 3.88857 14.1269 4.25972C12.3844 3.98979 10.6122 3.98979 8.86966 4.25972C8.71632 3.87732 8.48632 3.40495 8.27822 3.03379C8.26726 3.0113 8.23441 3.00005 8.20155 3.00005C6.55865 3.29248 4.99241 3.79859 3.52475 4.49591C3.5138 4.49591 3.50285 4.50716 3.49189 4.5184C0.512765 9.09596 -0.308686 13.5498 0.0965633 17.9586C0.0965633 17.9811 0.107516 18.0036 0.129421 18.0149C2.1009 19.4995 3.99572 20.3992 5.86863 20.9953C5.90148 21.0066 5.93434 20.9953 5.9453 20.9728C6.3834 20.3543 6.7777 19.7019 7.11723 19.0159C7.13914 18.9709 7.11723 18.9259 7.07342 18.9146C6.44912 18.6672 5.85767 18.3748 5.27718 18.0374C5.23337 18.0149 5.23337 17.9474 5.26623 17.9136C5.38671 17.8237 5.50719 17.7224 5.62767 17.6325C5.64957 17.61 5.68243 17.61 5.70434 17.6212C9.47206 19.387 13.5355 19.387 17.2594 17.6212C17.2813 17.61 17.3142 17.61 17.3361 17.6325C17.4566 17.7337 17.577 17.8237 17.6975 17.9249C17.7413 17.9586 17.7413 18.0261 17.6866 18.0486C17.117 18.3973 16.5146 18.6784 15.8903 18.9259C15.8465 18.9371 15.8356 18.9934 15.8465 19.0271C16.197 19.7132 16.5913 20.3655 17.0185 20.9841C17.0513 20.9953 17.0842 21.0066 17.117 20.9953C19.0009 20.3992 20.8957 19.4995 22.8672 18.0149C22.8891 18.0036 22.9 17.9811 22.9 17.9586C23.382 12.8637 22.1005 8.44363 19.5047 4.5184C19.4938 4.50716 19.4828 4.49591 19.4609 4.49591V4.49591ZM7.68677 15.2706C6.55865 15.2706 5.61671 14.2021 5.61671 12.8862C5.61671 11.5703 6.53674 10.5018 7.68677 10.5018C8.84776 10.5018 9.76778 11.5816 9.75683 12.8862C9.75683 14.2021 8.8368 15.2706 7.68677 15.2706ZM15.3208 15.2706C14.1927 15.2706 13.2507 14.2021 13.2507 12.8862C13.2507 11.5703 14.1708 10.5018 15.3208 10.5018C16.4818 10.5018 17.4018 11.5816 17.3908 12.8862C17.3908 14.2021 16.4818 15.2706 15.3208 15.2706Z" fill="#DCF8DB"/>
</svg>