<svg viewBox="0 0 275 135" height="150%" fill="none" xmlns="http://www.w3.org/2000/svg">
<path fill-rule="evenodd" clip-rule="evenodd" d="M6.388 0.564883C5.227 1.05488 3.314 2.67988 2.138 4.17488C0.0079999 6.88188 0 7.11889 0 66.7109C0 107.591 0.344 127.283 1.085 128.911C1.682 130.221 3.439 132.042 4.99 132.958C7.581 134.488 18.284 134.623 137.357 134.623C228.375 134.623 267.614 134.3 269.288 133.538C274.506 131.16 275 128.675 275 104.784C275 92.6669 274.57 81.6219 274.045 80.2399C273.519 78.8579 272.057 77.0529 270.795 76.2279C268.724 74.8739 16.952 1.08988 11 0.0928829C9.625 -0.137117 7.55 0.0748827 6.388 0.564883Z" fill="currentColor"/>
</svg>