<svg width=" 100%" height=" 100%" viewBox="0 0 18 20" fill="none" xmlns="http://www.w3.org/2000/svg">
<path d="M5.67911 20C5.01838 19.9642 4.39661 19.6756 3.94217 19.194C3.39848 18.6702 2.91332 18.0888 2.49524 17.4599C1.84215 16.5234 1.32591 15.4983 0.962142 14.4157C0.550449 13.251 0.333869 12.0262 0.321164 10.7908C0.28918 9.57853 0.588966 8.38063 1.18806 7.32677C1.62684 6.56716 2.2527 5.93282 3.00592 5.4843C3.7508 5.03769 4.60082 4.79729 5.46896 4.78771C6.1234 4.82648 6.76652 4.97628 7.37088 5.2307C7.85319 5.44326 8.35967 5.59268 8.8798 5.67475C9.45355 5.55439 10.0142 5.37818 10.5537 5.14863C11.1922 4.89897 11.8683 4.75915 12.5533 4.7351C12.6448 4.7351 12.7351 4.7351 12.8223 4.74562C14.325 4.78876 15.7225 5.52744 16.6052 6.74488C15.9163 7.11383 15.3431 7.66685 14.9493 8.34246C14.5555 9.01807 14.3564 9.78981 14.3744 10.5719C14.3675 11.1699 14.4873 11.7626 14.7258 12.3109C14.9643 12.8592 15.3162 13.3506 15.7582 13.7528C16.1607 14.1366 16.6292 14.4443 17.1411 14.6609C17.036 14.9766 16.9152 15.2817 16.787 15.589C16.4959 16.268 16.1368 16.9156 15.7152 17.522C15.3165 18.1294 14.8524 18.6912 14.3313 19.1971C13.8559 19.6695 13.2223 19.9481 12.5533 19.979C11.9863 19.9538 11.4292 19.8206 10.912 19.5865C10.3543 19.3432 9.75487 19.2099 9.1467 19.194C8.52138 19.2063 7.90424 19.3389 7.32884 19.5844C6.83187 19.8089 6.30092 19.9487 5.75792 19.9979L5.67911 20V20ZM8.98909 4.7351C8.91028 4.7351 8.83147 4.7351 8.75266 4.72563C8.73608 4.60038 8.72731 4.47421 8.72639 4.34787C8.76076 3.29682 9.17094 2.29309 9.88225 1.51944C10.2801 1.07482 10.7623 0.713908 11.3008 0.457726C11.8026 0.199037 12.351 0.043412 12.9138 0C12.9295 0.137844 12.9295 0.272531 12.9295 0.400905C12.9148 1.43544 12.5266 2.42966 11.8367 3.19987C11.5027 3.64836 11.0747 4.0182 10.5828 4.28342C10.0908 4.54863 9.54686 4.7028 8.98909 4.7351V4.7351Z" fill="currentColor"/>
</svg>