<svg width="60" height="60" viewBox="0 0 60 60" fill="none" xmlns="http://www.w3.org/2000/svg">
<path fill-rule="evenodd" clip-rule="evenodd" d="M19.5153 5.173C19.1851 4.84185 19.0001 4.39357 19.0001 3.92621L19 3.47286H29.8604V3.92627C29.8604 4.39453 29.674 4.84422 29.3429 5.17532C29.0113 5.50689 28.5621 5.6929 28.0933 5.6929H20.7602C20.2928 5.69105 19.845 5.50409 19.5153 5.173ZM40.0335 52.3V42.9676C40.0335 42.9679 40.0335 42.9681 40.0335 42.9684L40.0335 42.9668V42.9676C40.0222 42.3634 39.6956 41.8077 39.1707 41.5048C38.6364 41.196 37.9783 41.196 37.444 41.5048C36.9097 41.8132 36.5804 42.3833 36.5804 43V52.3336C36.5894 53.45 36.1527 54.5243 35.3667 55.3176C34.5808 56.111 33.5108 56.5584 32.3938 56.5602H14.6806C13.5687 56.5602 12.502 56.1185 11.7156 55.3321C10.9293 54.5454 10.4875 53.479 10.4875 52.3667V7.69982C10.4875 6.5791 10.9329 5.504 11.7253 4.71111C12.5182 3.91875 13.5933 3.47325 14.714 3.47325H15.5809V3.92666C15.5809 5.30643 16.1273 6.63038 17.1001 7.60834C18.0734 8.58678 19.3941 9.1397 20.7743 9.14668H28.1075C29.4914 9.14489 30.8181 8.59427 31.7965 7.61584C32.7754 6.6375 33.3255 5.31071 33.3274 3.92678V3.59335C34.2532 3.81144 35.0782 4.33552 35.6688 5.0805C36.2589 5.82598 36.5807 6.74904 36.5807 7.70003V14.1467C36.5807 14.7638 36.91 15.3334 37.4443 15.6422C37.9786 15.9505 38.6366 15.9505 39.171 15.6422C39.7053 15.3335 40.0341 14.7638 40.0341 14.1467V7.70003C40.0378 5.66121 39.2314 3.7049 37.7922 2.26096C36.3533 0.816598 34.3993 0.00372025 32.3611 0H14.68C12.6409 0.00369049 10.6863 0.816551 9.24657 2.26049C7.80637 3.70442 6.99862 5.66074 7.00001 7.69991V52.3334C6.99668 54.3643 7.80025 56.3132 9.2349 57.7511C10.6691 59.1894 12.6157 59.9981 14.6469 60H32.3934C34.4298 59.9982 36.3811 59.1844 37.8153 57.739C39.2494 56.2937 40.0479 54.3359 40.0335 52.3ZM40.0335 42.9684C40.0337 42.9789 40.0338 42.9894 40.0338 43L40.0335 42.9684ZM53.5204 28.666C53.5092 28.1438 53.2646 27.6546 52.8536 27.3328L44.9407 20.9725C44.5942 20.6284 44.119 20.4466 43.6316 20.4726C43.1443 20.4982 42.6904 20.7289 42.3826 21.1079C42.0747 21.4868 41.9417 21.9779 42.0161 22.4601C42.091 22.9428 42.3663 23.3711 42.7737 23.639L42.7741 23.6394L49.0139 28.666L42.7471 33.6926C42.3723 33.9934 42.1398 34.4366 42.1054 34.9156C42.0709 35.395 42.2379 35.867 42.5657 36.2181C42.894 36.5692 43.3535 36.7677 43.8338 36.7659C44.2268 36.7668 44.6081 36.6329 44.9136 36.3859L52.8536 29.9993C53.2623 29.6756 53.5065 29.1873 53.5204 28.666ZM34.0618 22.4875C34.1106 22.0318 33.9753 21.5756 33.6865 21.2199L33.6865 21.22C33.3981 20.8652 32.9805 20.6392 32.5257 20.5918C32.0709 20.5439 31.6157 20.6792 31.2599 20.967L23.3534 27.3337C22.941 27.6541 22.6954 28.1443 22.6866 28.667C22.6987 29.1887 22.9428 29.6774 23.3534 30.0002L31.2599 36.3534C31.7408 36.6701 32.3481 36.7259 32.8787 36.5022C33.4093 36.279 33.7939 35.806 33.9037 35.2405C34.0139 34.6755 33.8348 34.0928 33.4265 33.6869L27.1867 28.6668L33.4265 23.6468C33.7841 23.3603 34.0129 22.9432 34.0618 22.4875ZM30.2457 49.9996C30.8628 49.9996 31.4324 50.3288 31.7412 50.8632C32.0495 51.397 32.0495 52.0555 31.7412 52.5898C31.4324 53.1237 30.8627 53.4529 30.2457 53.4529H18.639C18.0219 53.4529 17.4522 53.1237 17.1435 52.5898C16.8352 52.0555 16.8352 51.397 17.1435 50.8632C17.4523 50.3288 18.0219 49.9996 18.639 49.9996H30.2457Z" fill="#B8EDFC"/>
</svg>