<svg width="24" height="24" viewBox="0 0 24 24" fill="none" xmlns="http://www.w3.org/2000/svg">
<path d="M15.6611 3.00375L13.5024 3C11.0772 3 9.5099 4.73871 9.5099 7.42982V9.47227H7.33943C7.15188 9.47227 7 9.63668 7 9.83949V12.7988C7 13.0016 7.15205 13.1658 7.33943 13.1658H9.5099V20.633C9.5099 20.8358 9.66178 21 9.84933 21H12.6812C12.8687 21 13.0206 20.8356 13.0206 20.633V13.1658H15.5584C15.7459 13.1658 15.8978 13.0016 15.8978 12.7988L15.8989 9.83949C15.8989 9.74211 15.863 9.64886 15.7995 9.57994C15.7359 9.51103 15.6493 9.47227 15.5593 9.47227H13.0206V7.74086C13.0206 6.90868 13.204 6.48622 14.2065 6.48622L15.6607 6.48566C15.8481 6.48566 16 6.32124 16 6.11863V3.37077C16 3.16835 15.8483 3.00412 15.6611 3.00375Z" fill="#DCF8DB"/>
</svg>