<svg width="60" height="60" viewBox="0 0 60 60" fill="none" xmlns="http://www.w3.org/2000/svg">
<path d="M59.9999 27.44H54.8275C54.4474 23.3495 52.0118 19.7195 48.3421 17.7746C44.6725 15.8302 40.2584 15.8302 36.5888 17.7746C32.9191 19.7195 30.4834 23.3495 30.1035 27.44H20.6897V25.4H28.9655V7.04H4.13793V25.4H12.4138V27.44H0V33.56H5.17242V51.92H8.27586V56H14.4828V51.92H27.931V43.76H46.5517V56H52.7586V43.76H54.8276V33.56H60L59.9999 27.44ZM42.4137 18.26C44.987 18.2472 47.4729 19.1807 49.3859 20.8783C51.2988 22.5758 52.5014 24.9151 52.7585 27.44H32.1209C32.3772 24.9242 33.5723 22.5918 35.4741 20.8956C37.3764 19.1993 39.8495 18.26 42.4139 18.26H42.4137ZM19.6551 23.36H13.4482V19.28H19.6551V23.36ZM6.20678 23.36V9.08H26.8964V23.36H21.724V17.24H11.3792V23.36H6.20678ZM14.4826 25.4H18.6206V27.44H14.4826V25.4ZM12.4137 53.96H10.3447V51.92H12.4137V53.96ZM25.862 49.88H7.24126V33.56H25.862V49.88ZM50.6895 53.96H48.6206V43.76H50.6895V53.96ZM52.7585 41.72H27.9309V33.56H52.7585V41.72ZM57.9309 31.52H2.06885V29.48H57.9309V31.52ZM42.4137 15.2C43.7853 15.2 45.101 14.6627 46.0714 13.7065C47.0412 12.7498 47.5861 11.4525 47.5861 10.1C47.5861 8.74754 47.0411 7.45033 46.0714 6.49351C45.1011 5.53727 43.7853 5 42.4137 5C41.042 5 39.7264 5.53732 38.756 6.49351C37.7862 7.45021 37.2413 8.74754 37.2413 10.1C37.2413 11.4525 37.7862 12.7497 38.756 13.7065C39.7263 14.6627 41.042 15.2 42.4137 15.2ZM42.4137 7.04C43.2366 7.04 44.0264 7.36239 44.6082 7.93614C45.19 8.5099 45.5171 9.2886 45.5171 10.0999C45.5171 10.9113 45.1901 11.6901 44.6082 12.2637C44.0263 12.8374 43.2365 13.1599 42.4137 13.1599C41.5908 13.1599 40.8009 12.8375 40.2192 12.2637C39.6374 11.69 39.3103 10.9113 39.3103 10.0999C39.3103 9.2886 39.6373 8.50979 40.2192 7.93614C40.8011 7.36249 41.5908 7.04 42.4137 7.04Z" fill="#B8EDFC"/>
</svg>