<svg width="60" height="60" viewBox="0 0 60 60" fill="none" xmlns="http://www.w3.org/2000/svg">
<path fill-rule="evenodd" clip-rule="evenodd" d="M52.4992 5.99969H56.2492L56.25 5.99968C57.2444 5.99968 58.1983 6.39478 58.9018 7.09831C59.6049 7.80138 60 8.75525 60 9.74965V43.4994C60 44.4942 59.6049 45.4481 58.9018 46.1512C58.1983 46.8543 57.2444 47.2494 56.25 47.2494H35.2748L36.0248 50.9994H37.4997C38.4941 50.9994 39.448 51.3945 40.1515 52.098C40.8546 52.8011 41.2497 53.7549 41.2497 54.7493V57.2496C41.2497 57.5811 41.1179 57.8987 40.8835 58.1335C40.6491 58.3679 40.331 58.4993 39.9996 58.4993H20.0004C19.669 58.4993 19.3509 58.3679 19.1165 58.1335C18.8821 57.8987 18.7503 57.5811 18.7503 57.2496V54.7493C18.7503 53.7549 19.1454 52.8011 19.8485 52.098C20.552 51.3944 21.5059 50.9994 22.5003 50.9994H23.9752L24.7252 47.2494H3.74997C2.75559 47.2494 1.80174 46.8543 1.09821 46.1512C0.395086 45.4481 0 44.4942 0 43.4994V9.74965C0 8.75527 0.395086 7.80143 1.09821 7.09831C1.8017 6.39477 2.75557 5.99968 3.74997 5.99968H7.49995V2.24971C7.49995 1.55957 8.05952 1 8.75008 1H51.2491C51.5805 1 51.8986 1.13142 52.133 1.36579C52.3674 1.60058 52.4992 1.91824 52.4992 2.24972V5.99969ZM49.9996 10.9998H9.99914V31H49.9996V10.9998ZM49.9996 3.49985H9.99914V8.49996H49.9996V3.49985ZM3.74933 8.49996C3.05919 8.49996 2.4992 9.05952 2.4992 9.74966L2.49834 38.5002H57.4987V9.74967C57.4987 9.4182 57.3668 9.10054 57.1324 8.86575C56.8981 8.63138 56.58 8.49996 56.2485 8.49996H52.4986V32.2491C52.4986 32.5806 52.3667 32.8986 52.1323 33.133C51.898 33.3674 51.5799 33.4992 51.2484 33.4992H8.74944C8.41796 33.4992 8.09989 33.3674 7.86551 33.133C7.63114 32.8986 7.4993 32.5806 7.4993 32.2491V8.49996H3.74933ZM38.7496 55.9995V54.7493L38.7492 54.7494C38.7492 54.4179 38.6174 54.1002 38.383 53.8654C38.1486 53.6311 37.8306 53.4996 37.4991 53.4996H22.4992C21.809 53.4996 21.2491 54.0592 21.2491 54.7493V55.9995H38.7496ZM26.5246 50.9994H33.4746L32.7246 47.2494H27.2746L26.5246 50.9994ZM57.1329 44.3833C57.3672 44.149 57.4991 43.8309 57.4991 43.4994L57.4995 40.9996H2.4992V43.4994C2.4992 44.19 3.05919 44.7496 3.74933 44.7496H56.249C56.5804 44.7496 56.8985 44.6177 57.1329 44.3833ZM14.3887 4.95959C14.8838 5.29023 15.0764 5.92476 14.8495 6.47512L14.8495 6.47509C14.0995 8.27518 11.4243 6.65005 12.8117 5.11277C13.2341 4.69257 13.8936 4.62855 14.3887 4.95959ZM16.5135 6.88718C16.7775 7.15253 17.1471 7.28562 17.52 7.24921C17.8929 7.21321 18.2298 7.01148 18.4382 6.7001C18.6467 6.38873 18.704 6.00034 18.5952 5.64166C18.4864 5.2834 18.2223 4.99253 17.8757 4.84981C17.3254 4.62255 16.6913 4.81549 16.3602 5.31019C16.0292 5.80531 16.0932 6.46529 16.5134 6.88722L16.5135 6.88718ZM21.2594 7.19981C20.8765 7.26594 20.4852 7.15 20.1997 6.88676L20.1998 6.88683C19.7833 6.50262 19.6774 5.88696 19.9411 5.38598C20.2048 4.88501 20.7723 4.62385 21.3247 4.74941C21.7031 4.83563 22.0203 5.0926 22.1827 5.44542C22.3451 5.79818 22.3342 6.20666 22.1534 6.55027C21.9726 6.89387 21.642 7.13411 21.2594 7.19981ZM39.9987 13.4984C38.0099 13.4984 36.1022 14.2886 34.6956 15.6953C33.2889 17.1019 32.4987 19.0096 32.4987 20.9984C32.4987 22.9876 33.2889 24.8952 34.6956 26.3019C36.1022 27.7081 38.0099 28.4983 39.9987 28.4983C41.9879 28.4983 43.8955 27.7081 45.3022 26.3019C46.7084 24.8952 47.4986 22.9876 47.4986 20.9984C47.4986 19.0096 46.7084 17.1019 45.3022 15.6953C43.8955 14.2886 41.9879 13.4984 39.9987 13.4984ZM39.9987 25.9987C38.6728 25.9987 37.4009 25.4718 36.4634 24.5343C35.5255 23.5964 34.999 22.3249 34.999 20.9986C34.999 19.6727 35.5255 18.4008 36.4634 17.4633C37.4009 16.5254 38.6728 15.9989 39.9987 15.9989C41.325 15.9989 42.5964 16.5254 43.5344 17.4633C44.4718 18.4008 44.9988 19.6727 44.9988 20.9986C44.9988 22.3249 44.4718 23.5964 43.5344 24.5343C42.5964 25.4718 41.325 25.9987 39.9987 25.9987ZM39.9993 19.2379L40.887 18.3502C41.3829 17.9254 42.122 17.9539 42.5837 18.4155C43.0457 18.8772 43.0742 19.6167 42.6494 20.1126L41.7621 20.9999L42.6494 21.8876C43.0742 22.3836 43.0457 23.1227 42.5837 23.5843C42.122 24.0464 41.3829 24.0748 40.887 23.65H40.8874L39.9997 22.7623L39.112 23.65C38.616 24.0748 37.8765 24.0464 37.4149 23.5843C36.9532 23.1226 36.9248 22.3836 37.3496 21.8876V21.888L38.2373 21.0003L37.3496 20.1126C36.9248 19.6167 36.9532 18.8771 37.4149 18.4155C37.8765 17.9539 38.616 17.9254 39.112 18.3502H39.1116L39.9993 19.2379ZM22.4999 15C20.5107 15 18.6031 15.7902 17.1964 17.1968C15.7902 18.6035 15 20.5112 15 22.4999C15 24.4891 15.7902 26.3968 17.1964 27.8035C18.6031 29.2097 20.5107 29.9999 22.4999 29.9999C24.4887 29.9999 26.3964 29.2097 27.803 27.8035C29.2097 26.3968 29.9999 24.4891 29.9999 22.4999C29.9999 20.5112 29.2097 18.6035 27.803 17.1968C26.3964 15.7902 24.4887 15 22.4999 15ZM22.4999 27.5003C21.1736 27.5003 19.9022 26.9733 18.9643 26.0359C18.1369 25.2081 17.6293 24.1206 17.5215 22.9648C18.1902 23.646 18.6047 24.0228 19.0389 24.0472C19.8371 24.092 20.7022 22.9461 23.3367 20.3117C23.8373 19.8354 23.857 19.0432 23.3807 18.543C22.904 18.0425 22.1121 18.0228 21.6115 18.4991L21.6116 18.4992L19.1117 20.999L18.3366 20.2113V20.2118C18.2756 20.1507 18.2099 20.0973 18.1406 20.0515C18.3623 19.6568 18.6385 19.2906 18.9643 18.9649C19.9022 18.027 21.1736 17.5005 22.4999 17.5005C23.8258 17.5005 25.0977 18.027 26.0352 18.9649C26.9731 19.9024 27.4996 21.1743 27.4996 22.5002C27.4996 23.8265 26.9731 25.0979 26.0352 26.0359C25.0977 26.9733 23.8258 27.5003 22.4999 27.5003Z" fill="#B8EDFC"/>
</svg>