<svg width="60" height="60" viewBox="0 0 60 60" fill="none" xmlns="http://www.w3.org/2000/svg">
<path fill-rule="evenodd" clip-rule="evenodd" d="M4.57813 5H55.0394L55.0401 5.00055C57.5601 5.00055 59.6102 7.05051 59.6102 9.57062V53.3827C59.6102 53.9139 59.1799 54.3442 58.6487 54.3442L32.5425 54.3447H0.961455C0.430292 54.3447 0 53.9144 0 53.3833V16.6008C0 16.5863 0.00212448 16.5727 0.00423779 16.5591C0.00580341 16.5491 0.0073629 16.5391 0.00804789 16.5289V9.57014C0.00804789 8.79754 0.201192 8.04158 0.567108 7.38379C0.747916 7.03022 1.00973 6.67826 1.35204 6.33595C2.20128 5.47589 3.34842 5 4.57813 5ZM2.71523 7.69119C2.51242 7.89401 2.36541 8.08877 2.2624 8.28996L2.26197 8.28989C2.03663 8.69604 1.92986 9.11721 1.92986 9.57004V15.6393H57.686V9.57004C57.686 8.11021 56.4982 6.92288 55.0388 6.92288H4.57757C3.86608 6.92288 3.20401 7.19598 2.71523 7.69119ZM28.028 46.3869V52.4207H31.5792V46.3869H28.028ZM26.449 44.4646H33.1583L34.2394 37.3696L29.8039 32.448L25.3679 37.3696L26.449 44.4646ZM33.5031 52.4207H57.6864L57.6859 17.5694H1.92158V52.4207H26.1049V46.3869H25.6226C25.1477 46.3869 24.7437 46.0398 24.6724 45.5703L23.3987 37.2085C23.3552 36.9237 23.4416 36.6339 23.6347 36.4199L29.0896 30.3679C29.455 29.9628 30.1535 29.9628 30.5184 30.3679L35.9732 36.4199C36.1664 36.6339 36.2528 36.9237 36.2093 37.2085L34.9356 45.5703C34.8642 46.0398 34.4602 46.3869 33.9854 46.3869H33.5031V52.4207ZM6.87346 12.4088C7.40462 12.4088 7.83491 11.9785 7.83491 11.4473C7.83491 10.9167 7.40462 10.4859 6.87346 10.4859C6.3423 10.4859 5.912 10.9167 5.912 11.4473C5.912 11.9785 6.3423 12.4088 6.87346 12.4088ZM12.2145 11.4473C12.2145 11.9785 11.7837 12.4088 11.2531 12.4088C10.7219 12.4088 10.2916 11.9785 10.2916 11.4473C10.2916 10.9167 10.7219 10.4859 11.2531 10.4859C11.7837 10.4859 12.2145 10.9167 12.2145 11.4473ZM15.6341 12.4088C16.1652 12.4088 16.5955 11.9785 16.5955 11.4473C16.5955 10.9167 16.1652 10.4859 15.6341 10.4859C15.1034 10.4859 14.6726 10.9167 14.6726 11.4473C14.6726 11.9785 15.1034 12.4088 15.6341 12.4088ZM29.8039 37.5918C28.3488 37.5918 27.1658 38.7748 27.1658 40.2293C27.1658 41.6844 28.3488 42.8668 29.8039 42.8668C31.2589 42.8668 32.4419 41.6838 32.4419 40.2293C32.4419 38.7748 31.2589 37.5918 29.8039 37.5918ZM29.8039 40.9439C29.4095 40.9439 29.0887 40.6231 29.0887 40.2293C29.0887 39.8355 29.4095 39.5146 29.8039 39.5146C30.1982 39.5146 30.519 39.8355 30.519 40.2293C30.519 40.6236 30.1982 40.9439 29.8039 40.9439ZM34.2836 20.632V24.0508L34.2835 24.0509C40.0807 25.8972 44.1481 31.1348 44.5119 37.2045H47.2583C47.7895 37.2045 48.2198 37.6348 48.2198 38.1659V45.5072C48.2198 46.0383 47.7895 46.4686 47.2583 46.4686H39.9176C39.3865 46.4686 38.9562 46.0383 38.9562 45.5072V38.1659C38.9562 37.6348 39.3865 37.2045 39.9176 37.2045H42.589C42.2423 32.1794 38.977 27.8255 34.2835 26.078V27.9702C34.2835 28.5014 33.8532 28.9317 33.322 28.9317H25.9834C25.4522 28.9317 25.0219 28.5014 25.0219 27.9702V26.1943C20.5263 28.004 17.3893 32.2673 17.0191 37.1249H19.6883C20.2195 37.1249 20.6498 37.5552 20.6498 38.0864V45.4277C20.6498 45.9588 20.2195 46.3891 19.6883 46.3891H12.3476C11.8165 46.3891 11.3862 45.9588 11.3862 45.4277V38.0864C11.3862 37.5552 11.8165 37.1249 12.3476 37.1249H15.0963C15.4875 31.2257 19.4256 26.0671 25.0221 24.1485V20.632C25.0221 20.1008 25.4524 19.6706 25.9835 19.6706H33.3222C33.8533 19.6706 34.2836 20.1008 34.2836 20.632ZM13.3095 44.4666H18.7273L18.7273 39.0483H16.0382C16.0351 39.0485 16.0321 39.0494 16.0291 39.0503C16.0256 39.0514 16.0219 39.0526 16.0178 39.0526C16.0144 39.0526 16.011 39.0515 16.0077 39.0504C16.0043 39.0493 16.0009 39.0483 15.9975 39.0483H13.3095V44.4666ZM26.9453 27.0093H32.361V21.5936H26.9453V27.0093ZM40.8802 44.5463H46.298V39.1279H40.8802V44.5463Z" fill="#B8EDFC"/>
</svg>