<svg width="70" height="70" viewBox="0 0 70 70" fill="none" xmlns="http://www.w3.org/2000/svg">
<circle cx="35" cy="35" r="35" fill="#B8EDFC"/>
<path fill-rule="evenodd" clip-rule="evenodd" d="M23.3 22C22.582 22 22 22.582 22 23.3V32.4C22 33.118 22.582 33.7 23.3 33.7H32.4C33.118 33.7 33.7 33.118 33.7 32.4V23.3C33.7 22.582 33.118 22 32.4 22H23.3ZM24.6 31.1V24.6H31.1V31.1H24.6ZM37.6 22C36.882 22 36.3 22.582 36.3 23.3V32.4C36.3 33.118 36.882 33.7 37.6 33.7H46.7C47.418 33.7 48 33.118 48 32.4V23.3C48 22.582 47.418 22 46.7 22H37.6ZM38.9 31.1V24.6H45.4V31.1H38.9ZM36.3 37.6C36.3 36.882 36.882 36.3 37.6 36.3H46.7C47.418 36.3 48 36.882 48 37.6V46.7C48 47.418 47.418 48 46.7 48H37.6C36.882 48 36.3 47.418 36.3 46.7V37.6ZM38.9 38.9V45.4H45.4V38.9H38.9ZM23.3 36.3C22.582 36.3 22 36.882 22 37.6V46.7C22 47.418 22.582 48 23.3 48H32.4C33.118 48 33.7 47.418 33.7 46.7V37.6C33.7 36.882 33.118 36.3 32.4 36.3H23.3ZM24.6 45.4V38.9H31.1V45.4H24.6Z" fill="#121E2C"/>
</svg>