<svg width="70" height="70" viewBox="0 0 70 70" fill="none" xmlns="http://www.w3.org/2000/svg">
<circle cx="35" cy="35" r="35" fill="#F9D2CD"/>
<path d="M38.5896 25.7261C39.5706 24.7796 40.129 23.4842 40.1409 22.1281C40.1526 20.7722 39.6164 19.4679 38.6515 18.5047C37.6869 17.5416 36.3734 17 35.0032 17C33.633 17 32.3195 17.5417 31.355 18.5047C30.3901 19.4679 29.8539 20.7722 29.8655 22.1281C29.8774 23.4842 30.4358 24.7796 31.4169 25.7261C30.3152 26.6192 29.6759 27.954 29.6748 29.3635V32.5101C29.6748 32.8438 29.8087 33.1641 30.0472 33.4001C30.2856 33.6361 30.6093 33.7687 30.9465 33.7687H39.0601C39.3974 33.7687 39.721 33.6361 39.9594 33.4001C40.1979 33.1641 40.3318 32.8438 40.3318 32.5101V29.3635C40.3307 27.954 39.6913 26.6192 38.5896 25.7261ZM35.0032 19.5273C35.6913 19.5273 36.351 19.7979 36.8375 20.2794C37.324 20.761 37.5974 21.4138 37.5974 22.0949C37.5974 22.7759 37.324 23.4288 36.8375 23.9103C36.3509 24.3919 35.6913 24.6624 35.0032 24.6624C34.315 24.6624 33.6553 24.3919 33.1688 23.9103C32.6823 23.4288 32.4089 22.7759 32.4089 22.0949C32.4089 21.4138 32.6823 20.7609 33.1688 20.2794C33.6554 19.7979 34.315 19.5273 35.0032 19.5273ZM37.7882 31.2197H32.2181V29.3317C32.2181 28.7527 32.4506 28.197 32.8642 27.7876C33.2781 27.378 33.8393 27.1479 34.4247 27.1479H35.582C36.1674 27.1479 36.7283 27.378 37.1422 27.7876C37.5558 28.197 37.7883 28.7527 37.7883 29.3317L37.7882 31.2197ZM26.9276 44.9574C27.9064 44.0098 28.4625 42.7149 28.4727 41.3599C28.4827 40.0049 27.9459 38.7019 26.9813 37.7402C26.0168 36.7786 24.7041 36.2374 23.335 36.2374C21.9659 36.2374 20.6533 36.7785 19.6887 37.7402C18.7242 38.7019 18.1873 40.0049 18.1973 41.3599C18.2075 42.7149 18.7636 44.0098 19.7424 44.9574C18.6393 45.8494 17.9995 47.1851 18 48.5948V51.7414C18 52.0754 18.134 52.3954 18.3727 52.6314C18.6112 52.8674 18.9345 53 19.2717 53H27.373C27.7102 53 28.0338 52.8674 28.2723 52.6314C28.5107 52.3954 28.6447 52.0754 28.6447 51.7414V48.5948C28.6515 47.1892 28.0214 45.8544 26.9276 44.9574ZM23.3412 38.7713C24.0293 38.7713 24.6893 39.0418 25.1758 39.5234C25.6624 40.0049 25.9357 40.6578 25.9357 41.3388C25.9357 42.0199 25.6624 42.673 25.1758 43.1546C24.6893 43.6361 24.0293 43.9064 23.3412 43.9064C22.6534 43.9064 21.9934 43.6361 21.5068 43.1546C21.0203 42.673 20.7469 42.0199 20.7469 41.3388C20.7469 40.6578 21.0203 40.0049 21.5068 39.5234C21.9934 39.0418 22.6534 38.7713 23.3412 38.7713ZM26.101 50.4636H20.5499V48.5757C20.5516 47.9972 20.7847 47.4426 21.198 47.0336C21.6113 46.6243 22.1716 46.3936 22.7564 46.3919H23.92C24.5036 46.4003 25.0601 46.6363 25.4685 47.049C25.877 47.4615 26.1044 48.0169 26.101 48.5945L26.101 50.4636ZM50.2638 44.9571C51.2466 44.0095 51.8064 42.7127 51.8183 41.3549C51.8302 39.9968 51.2937 38.6904 50.3277 37.7262C49.3617 36.7617 48.0465 36.2192 46.6744 36.2192C45.3024 36.2192 43.987 36.7617 43.021 37.7262C42.0553 38.6904 41.5185 39.9968 41.5304 41.3549C41.5426 42.7127 42.1021 44.0095 43.0849 44.9571C41.9889 45.8528 41.3564 47.1879 41.3618 48.5945V51.7411C41.3618 52.0751 41.4958 52.3951 41.7342 52.6311C41.9727 52.8671 42.2963 52.9997 42.6335 52.9997H50.7283C51.0655 52.9997 51.3891 52.8671 51.6276 52.6311C51.866 52.3951 52 52.0751 52 51.7411V48.5945C52.0023 47.1858 51.3647 45.8505 50.2638 44.9571ZM46.665 38.771C47.3528 38.771 48.0128 39.0416 48.4993 39.5231C48.9859 40.0046 49.2592 40.6575 49.2592 41.3385C49.2592 42.0196 48.9859 42.6728 48.4993 43.1543C48.0128 43.6358 47.3528 43.9061 46.665 43.9061C45.9769 43.9061 45.3169 43.6358 44.8304 43.1543C44.3438 42.6727 44.0704 42.0196 44.0704 41.3385C44.0704 40.6575 44.3438 40.0046 44.8304 39.5231C45.3169 39.0416 45.9769 38.771 46.665 38.771ZM49.4565 50.4763H43.9052V48.5883C43.9069 48.0096 44.1399 47.4553 44.5533 47.046C44.9669 46.6369 45.5269 46.4063 46.1117 46.4046H47.2753C47.86 46.4062 48.4201 46.6369 48.8337 47.046C49.247 47.4553 49.48 48.0096 49.4818 48.5883L49.4565 50.4763ZM39.7849 43.6482C39.616 43.9384 39.3372 44.1499 39.0102 44.2362C38.6832 44.3224 38.3349 44.2761 38.0425 44.1075L35.0032 42.3643L31.951 44.101C31.7571 44.2098 31.538 44.2665 31.3151 44.2648C30.9399 44.2643 30.5839 44.0996 30.3429 43.8147C30.1016 43.5302 30 43.1545 30.0647 42.7887C30.1297 42.4226 30.3545 42.1038 30.6793 41.9175L33.7314 40.1869V36.7069C33.7314 36.2571 33.9738 35.8416 34.3673 35.6168C34.7607 35.3921 35.2456 35.3921 35.639 35.6168C36.0325 35.8416 36.2749 36.2571 36.2749 36.7069V40.1869L39.3208 41.9175C39.6157 42.0847 39.8309 42.3617 39.918 42.6867C40.0052 43.0121 39.9572 43.3582 39.7849 43.6482Z" fill="#121E2C"/>
</svg>