<svg width="60" height="60" viewBox="0 0 60 60" fill="none" xmlns="http://www.w3.org/2000/svg">
<path d="M31.7456 49.1249V57.4998H39.8433C41.7121 57.4998 41.7121 59.9996 39.8433 59.9996L21.1565 60C19.2877 60 19.2877 57.5002 21.1565 57.5002H29.2542V49.1249C19.2877 48.4374 12 40.6249 12 30.6249C12 28.7498 14.6162 28.7498 14.6162 30.6249C14.6162 39.3747 21.7172 46.5624 30.5 46.5624C39.2829 46.562 46.3838 39.3747 46.3838 30.6249C46.3838 28.7498 49 28.7498 49 30.6249C49 40.6247 41.7119 48.4374 31.7456 49.1249ZM42.3347 11.9375V30.5625C42.3347 37.1873 37.1025 42.4999 30.4997 42.4999C23.8969 42.4999 18.6646 37.1249 18.6646 30.5625V11.9375C18.6646 5.37488 23.8969 0 30.4997 0C37.1025 0 42.3347 5.37499 42.3347 11.9375ZM39.8433 30.5625V27.5002H34.2375C32.9918 27.5002 32.9918 25.6251 34.2375 25.6251H39.8433V22.5001H34.2375C32.9918 22.5001 32.9918 20.625 34.2375 20.625H39.8433V17.5H34.2375C32.9918 17.5 32.9918 15.6249 34.2375 15.6249H39.8433V11.9375C39.8433 6.81227 35.6079 2.62488 30.4999 2.62488C25.3919 2.62488 21.1565 6.81238 21.1565 11.9375V15.6249H26.7623C28.008 15.6249 28.008 17.5 26.7623 17.5H21.1565V20.625H26.7623C28.008 20.625 28.008 22.5001 26.7623 22.5001H21.1565V25.6251H26.7623C28.008 25.6251 28.008 27.5002 26.7623 27.5002H21.1565V30.5628C21.1565 35.688 25.3919 39.8754 30.4999 39.8754C35.6079 39.8749 39.8433 35.6877 39.8433 30.5625Z" fill="#B8EDFC"/>
</svg>