<svg width="60" height="60" viewBox="0 0 60 60" fill="none" xmlns="http://www.w3.org/2000/svg">
<path d="M39.9969 17H20.0025C16.1036 17 13.0045 20.1 13.0045 24V36C13.0045 39.9 16.1036 43 20.0025 43H39.9969C43.8958 43 46.9949 39.9 46.9949 36V24C46.9949 20.1 43.8958 17 39.9969 17ZM44.9955 36C44.9955 38.8 42.7961 41 39.9969 41H20.0025C17.2033 41 15.0039 38.8 15.0039 36V24C15.0039 21.2 17.2033 19 20.0025 19H39.9969C42.7961 19 44.9955 21.2 44.9955 24V36Z" fill="#B8EDFC"/>
<path d="M22.0028 39.7008L40.0983 30.0008L22.0028 20.3008V39.7008ZM24.0022 23.7008L35.8983 30.0008L24.0022 36.4008V23.7008Z" fill="#B8EDFC"/>
<path d="M58.1921 32.3C59.2918 32.2 60.0915 31.2 59.9916 30.1L59.1918 20.1C59.1918 19.5 58.8919 19 58.492 18.7C57.9921 18.3 57.4923 18.2 56.9924 18.2L55.0929 18.3L52.4937 14L53.4934 12.8C54.2932 12 54.0932 10.7 53.2934 10L45.5956 3.6C44.7958 2.8 43.4962 3 42.7964 3.8L41.0969 5.8L37.098 4V2C37.098 0.9 36.1983 0 35.0986 0H25.0014C23.9017 0 23.002 0.9 23.002 2V4.1L19.0031 6L17.4035 4C17.0037 3.6 16.5038 3.3 16.0039 3.3C15.5041 3.3 15.0042 3.5 14.6043 3.8L6.9065 10.2C6.10672 10.9 6.00675 12.2 6.70655 13L8.00619 14.5L5.50689 18.5L3.00759 18.3C1.9079 18.2 0.908184 19 0.808212 20.1L0.00843681 30.1C-0.0915351 31.2 0.70824 32.2 1.80793 32.3L2.70768 32.4L3.7074 37.2L2.30779 38C1.9079 38.3 1.50801 38.7 1.40804 39.2C1.30807 39.7 1.30807 40.2 1.60799 40.7L6.60658 49.4C6.9065 50 7.6063 50.4 8.3061 50.4C8.60602 50.4 9.00591 50.3 9.30582 50.1L11.2053 49L14.4044 52.2L13.7046 54C13.4047 55 14.0045 56.1 15.0042 56.5L24.4016 59.9C24.6015 60 24.9014 60 25.1014 60C26.0011 60 26.7009 59.5 27.0008 58.7L27.6007 57H32.4993L33.0991 58.7C33.1991 59.2 33.599 59.6 34.0988 59.8C34.2988 59.9 34.5987 60 34.8986 60C35.0986 60 35.3985 60 35.5984 59.9L44.9958 56.5C45.9955 56.1 46.5953 54.9 46.1954 53.9L45.6956 52.4L49.3945 49.1L50.7942 49.9C51.0941 50.1 51.494 50.2 51.7939 50.2C51.8938 50.2 52.0938 50.2 52.2937 50.1C52.7936 50 53.1935 49.7 53.4934 49.2L58.492 40.5C59.0918 39.6 58.7919 38.4 57.7922 37.8L55.8927 36.7L56.5925 32.3H58.1921ZM57.1924 20.3L57.9921 30.3L56.9924 30.4V30.2C57.0924 29.6 56.6925 29.1 56.1926 28.9C55.5928 28.8 55.0929 29.2 54.993 29.7L54.893 30.5L53.9933 30.6L53.1935 20.6L53.9933 20.5L54.793 21.8C54.993 22.3 55.6928 22.4 56.1926 22.1C56.5925 21.8 56.7925 21.2 56.4925 20.7L56.2926 20.4L57.1924 20.3ZM44.196 5.3L51.8938 11.7L51.394 12.3L51.294 12.2C50.9941 11.8 50.3943 11.6 49.8944 11.9C49.4945 12.2 49.2946 12.8 49.5945 13.3L49.9944 14L49.2946 14.8L41.5967 8.4L42.6964 8.9C43.1963 9.1 43.7961 8.9 43.9961 8.4C44.196 7.9 43.9961 7.3 43.4962 7.1L42.8964 6.8L44.196 5.3ZM25.0014 2H34.9986V3.2L34.3988 2.9C33.8989 2.7 33.2991 2.9 33.0991 3.4C32.8992 3.9 33.0991 4.5 33.599 4.7L34.9986 5.3V6H25.0014V5.3L26.0011 4.8C26.501 4.6 26.7009 4 26.501 3.5C26.301 3 25.7012 2.8 25.2013 3L25.0014 3.1V2ZM8.10559 11.7L15.8034 5.3L17.1031 6.9L16.7032 7.1C16.2033 7.3 16.0034 7.9 16.2033 8.4C16.4033 8.9 17.0031 9.1 17.5029 8.9L18.2027 8.6L10.7049 14.8L10.4049 14.4L11.0048 13.5C11.3047 13 11.2047 12.4 10.7049 12.1C10.205 11.8 9.60517 11.9 9.30525 12.4L9.00533 12.8L8.10559 11.7ZM2.0073 30.3L2.80708 20.3L4.20668 20.4C3.90677 20.9 4.00674 21.5 4.5066 21.8C4.90649 22.1 5.60629 22 5.90621 21.5L6.50604 20.6H6.80595L6.00618 30.6L4.5066 30.5L4.30666 29.5C4.10671 29 3.60685 28.7 3.00702 28.8C2.50716 28.9 2.10728 29.4 2.20725 30L2.30722 30.3H2.0073ZM8.20556 48.4006L3.20697 39.7006L4.10671 39.2006V39.3006C4.20668 39.8006 4.70654 40.2006 5.30637 40.1006C5.90621 39.9006 6.30609 39.4006 6.20612 38.8006L6.10615 38.1006L6.70598 37.7006L11.7046 46.4006L11.6046 46.5006L10.7049 45.6006C10.305 45.2006 9.70514 45.2006 9.30525 45.6006C8.90536 46.0006 8.90536 46.6006 9.30525 47.0006L9.80511 47.5006L8.20556 48.4006ZM25.1014 58.0006L15.704 54.6006L16.0039 53.7006H16.1039C16.5038 54.1006 17.1036 54.1006 17.5035 53.7006C17.9034 53.3006 17.9034 52.7006 17.5035 52.3006L16.8037 51.6006L17.1036 50.8006L26.501 54.2006L26.2011 55.0006H25.0014C24.4016 55.0006 24.0017 55.4006 24.0017 56.0006C24.0017 56.6006 24.4016 57.0006 25.0014 57.0006H25.5013L25.1014 58.0006ZM44.296 54.7006L34.8986 58.1006L34.4987 57.0006H34.9986C35.5984 57.0006 35.9983 56.6006 35.9983 56.0006C35.9983 55.4006 35.5984 55.0006 34.9986 55.0006H33.7989L33.499 54.3006L42.8964 50.9006L43.2963 51.9006L42.5965 52.5006C42.1966 52.9006 42.0966 53.5006 42.4965 53.9006C42.8964 54.3006 43.4962 54.4006 43.8961 54.0006L43.9961 53.9006L44.296 54.7006ZM56.793 39.7006L51.7944 48.4006L50.8947 47.9006L51.3946 47.4006C51.7944 47.0006 51.7944 46.4006 51.4945 46.0006C51.0946 45.6006 50.4948 45.5006 50.0949 45.9006L48.9952 46.8006L48.2954 46.4006L53.294 37.7006L53.6939 37.9006L53.394 39.6006C53.294 40.2006 53.6939 40.7006 54.1938 40.8006C54.7936 40.9006 55.2935 40.5006 55.3934 40.0006L55.5934 39.0006L56.793 39.7006ZM53.9938 35.8006C53.5939 35.7006 53.194 35.7006 52.7942 35.7006C52.2943 35.8006 51.8944 36.1006 51.5945 36.6006L46.5959 45.3006C45.9961 46.2006 46.296 47.4006 47.2957 48.0006L47.5956 48.1006L44.9964 50.4006L44.8964 50.0006C44.7964 49.5006 44.3965 49.2006 43.8967 48.9006C43.3968 48.6006 42.8969 48.6006 42.3971 48.8006L32.9997 52.2006C32 52.6006 31.4002 53.8006 31.8001 54.8006V54.9006H28.301L28.401 54.7006C28.501 54.2006 28.501 53.7006 28.301 53.2006C28.1011 52.7006 27.7012 52.4006 27.2014 52.2006L17.804 48.8006C17.3041 48.7006 16.8043 48.7006 16.3044 48.9006C15.8046 49.1006 15.5046 49.5006 15.3047 50.0006L13.0054 47.9006C13.8051 47.3006 14.105 46.3006 13.5052 45.3006L8.50662 36.6006C8.00676 35.7006 6.8071 35.4006 5.80738 35.9006L5.60743 36.0006L4.90763 32.5006L5.80738 32.6006H6.20726C6.60715 32.6006 7.00704 32.4006 7.30696 32.2006C7.70684 31.8006 8.00676 31.3006 8.00676 30.8006L8.80653 20.8006C8.90651 19.9006 8.40665 19.1006 7.60687 18.8006L9.30639 16.1006C9.70628 16.6006 10.2061 16.8006 10.806 16.8006C11.2059 16.8006 11.7057 16.7006 12.0056 16.4006L19.8034 10.0006C20.2033 9.60057 20.5032 9.10057 20.5032 8.60057C20.5032 8.20057 20.4033 7.90057 20.3033 7.60057L23.0025 6.20057C23.1025 7.20057 24.0023 8.00057 25.002 8.00057H34.9992C35.9989 8.00057 36.7987 7.20057 36.9986 6.30057L39.7978 7.60057C39.6978 7.90057 39.5979 8.20057 39.5979 8.60057C39.5979 9.20057 39.8978 9.70057 40.2977 10.0006L47.9955 16.4006C48.3954 16.7006 48.7953 16.9006 49.2951 16.9006C49.795 16.9006 50.3948 16.7006 50.7947 16.1006L51.0946 15.8006L52.7942 18.6006C51.7944 18.8006 51.0946 19.7006 51.1946 20.8006L51.9944 30.8006C51.9944 31.4006 52.2943 31.9006 52.6942 32.2006C52.9941 32.5006 53.394 32.7006 53.7939 32.7006H54.1938H54.4937L53.9938 35.8006Z" fill="#B8EDFC"/>
</svg>