<svg width=" 100%" height=" 100%" viewBox="0 0 18 20" fill="none" xmlns="http://www.w3.org/2000/svg">
<path d="M3.54865 15.1274C3.54865 15.6497 3.97438 16.0761 4.49818 16.0761H5.58368V18.7634C5.58368 19.4442 6.12977 20 6.80069 20C7.47383 20 8.01769 19.4465 8.01769 18.7634V16.0738H9.9123V18.7612C9.9123 19.442 10.4584 19.9978 11.1293 19.9978C11.8024 19.9978 12.3463 19.4442 12.3463 18.7612V16.0738H13.4318C13.9556 16.0738 14.3813 15.6475 14.3813 15.1252V6.30418H3.54865V15.1274ZM11.5082 1.73296L12.509 0.282128C12.567 0.19731 12.5536 0.0834756 12.4756 0.0276745C12.3976 -0.0258945 12.2861 0.000890161 12.2282 0.0857078L11.1895 1.59457C10.5052 1.32449 9.7429 1.17494 8.9427 1.17494C8.14251 1.17494 7.38021 1.32449 6.69593 1.59457L5.65724 0.0879398C5.59928 0.00312217 5.48784 -0.0258944 5.40982 0.0299067C5.33181 0.0834758 5.31844 0.195078 5.37639 0.28436L6.37719 1.73519C4.78572 2.47623 3.67124 3.88018 3.52859 5.52073H14.3613C14.2142 3.87795 13.0975 2.47399 11.5082 1.73296ZM6.6558 4.0208C6.53722 4.0208 6.42129 3.98559 6.32269 3.91961C6.22409 3.85364 6.14724 3.75986 6.10186 3.65015C6.05648 3.54044 6.0446 3.41971 6.06774 3.30324C6.09087 3.18677 6.14798 3.07979 6.23183 2.99582C6.31569 2.91185 6.42252 2.85467 6.53883 2.8315C6.65514 2.80833 6.7757 2.82022 6.88526 2.86567C6.99482 2.91111 7.08846 2.98807 7.15434 3.08681C7.22023 3.18554 7.25539 3.30163 7.25539 3.42038C7.25498 3.5795 7.19168 3.73197 7.07932 3.84449C6.96697 3.957 6.8147 4.02039 6.6558 4.0208ZM11.3009 4.0208C11.1823 4.0208 11.0664 3.98559 10.9678 3.91961C10.8692 3.85364 10.7924 3.75986 10.747 3.65015C10.7016 3.54044 10.6897 3.41971 10.7129 3.30324C10.736 3.18677 10.7931 3.07979 10.877 2.99582C10.9608 2.91185 11.0676 2.85467 11.184 2.8315C11.3003 2.80833 11.4208 2.82022 11.5304 2.86567C11.6399 2.91111 11.7336 2.98807 11.7995 3.08681C11.8654 3.18554 11.9005 3.30163 11.9005 3.42038C11.9001 3.5795 11.8368 3.73197 11.7244 3.84449C11.6121 3.957 11.4598 4.02039 11.3009 4.0208ZM16.2804 6.26847C15.6073 6.26847 15.0634 6.82202 15.0634 7.50502V12.3352C15.0634 13.0159 15.6095 13.5717 16.2804 13.5717C16.9535 13.5717 17.4974 13.0182 17.4974 12.3352V7.50279C17.4996 6.81978 16.9558 6.26847 16.2804 6.26847ZM1.60055 6.26847C0.927408 6.26847 0.383545 6.82202 0.383545 7.50502V12.3352C0.383545 13.0159 0.929637 13.5717 1.60055 13.5717C2.27369 13.5717 2.81756 13.0182 2.81756 12.3352V7.50279C2.81756 6.81978 2.27146 6.26847 1.60055 6.26847Z" fill="currentColor"/>
</svg>