<svg width="60" height="60" viewBox="0 0 60 60" fill="none" xmlns="http://www.w3.org/2000/svg">
<path fill-rule="evenodd" clip-rule="evenodd" d="M49.5398 48.075C49.5398 48.8836 48.8824 49.5397 48.0751 49.5397C47.2679 49.5397 46.6104 48.8837 46.6104 48.075C46.6104 47.266 47.2678 46.6103 48.0751 46.6103C48.8815 46.6103 49.5398 47.266 49.5398 48.075ZM44.7473 48.075C44.7473 48.8836 44.0951 49.5397 43.2826 49.5397C42.4753 49.5397 41.8178 48.8837 41.8178 48.075C41.8178 47.266 42.4753 46.6103 43.2826 46.6103C44.0951 46.6103 44.7473 47.266 44.7473 48.075ZM54.3323 48.075C54.3323 48.8836 53.6749 49.5397 52.8676 49.5397C52.0551 49.5397 51.4029 48.8837 51.4029 48.075C51.4029 47.266 52.055 46.6103 52.8676 46.6103C53.674 46.6103 54.3323 47.266 54.3323 48.075ZM47.6765 17.3635C48.2351 17.6878 48.4284 18.4036 48.1024 18.964C47.8866 19.3401 47.4942 19.5502 47.0912 19.5502C46.8926 19.5502 46.6878 19.4997 46.505 19.3933L43.697 17.7731C43.1385 17.4497 42.9451 16.733 43.2712 16.1726C43.592 15.6128 44.3104 15.4199 44.8685 15.7433L47.6765 17.3635ZM43.2716 8.03326C42.9456 7.47297 43.1389 6.7562 43.6975 6.43277L46.5055 4.8126C47.064 4.48917 47.7825 4.6812 48.1028 5.24193C48.4289 5.80222 48.2355 6.51978 47.677 6.84242L44.869 8.46259C44.6866 8.56938 44.4818 8.61947 44.2828 8.61947C43.8789 8.61859 43.4865 8.40854 43.2716 8.03326ZM46.3169 10.9305H49.3899C50.0363 10.9305 50.5619 11.4556 50.5619 12.1034C50.5619 12.7502 50.0367 13.2754 49.3899 13.2754H46.3169C45.6701 13.2754 45.1449 12.7502 45.1449 12.1034C45.1449 11.4552 45.6701 10.9305 46.3169 10.9305ZM21.2381 23.3186L20.5249 17.8692H21.4982L22.1671 23.1169L21.2381 23.3186ZM14.9471 12.1019C14.9471 10.2141 16.478 8.6782 18.3685 8.6782H21.3589V15.5264H18.3685C16.478 15.526 14.9471 13.9897 14.9471 12.1019ZM36.7432 3.31493C36.7432 2.78014 37.1796 2.34421 37.7166 2.34421C38.2527 2.34421 38.6838 2.78014 38.6838 3.31493V20.8891C38.6838 21.4239 38.2527 21.8599 37.7166 21.8599C37.1805 21.8599 36.7432 21.4239 36.7432 20.8891V3.31493ZM41.7072 12.1024C41.7072 12.595 41.4307 13.0252 41.0273 13.248L41.0269 10.9559C41.4307 11.1792 41.7072 11.6089 41.7072 12.1024ZM23.7032 8.98802C27.8269 8.41498 31.5248 7.16872 34.3992 5.39646V18.8072C31.5248 17.0349 27.8269 15.7887 23.7032 15.2156V8.98802ZM37.7158 24.2032C39.5399 24.2032 41.027 22.7161 41.027 20.8885V15.6982C42.7403 15.3985 44.0508 13.9001 44.0508 12.1014C44.0508 10.3019 42.7408 8.80386 41.027 8.50406V3.31471C41.027 1.48709 39.5399 0 37.7158 0C36.1738 0 34.8743 1.05597 34.5043 2.48111C31.8238 4.54688 27.8161 6.04849 23.3496 6.66902C23.1396 6.4616 22.8465 6.33372 22.5314 6.33372H18.369C15.191 6.33372 12.6036 8.92114 12.6036 12.1018C12.6036 15.2117 15.0741 17.7533 18.1586 17.8642L18.9491 23.9056C19.0264 24.4896 19.3305 24.998 19.8174 25.3373C20.1712 25.5878 20.586 25.7179 21.0056 25.7179C21.1546 25.7179 21.304 25.702 21.453 25.6691L22.8952 25.3562C23.9621 25.1264 24.6587 24.1376 24.5206 23.0579L23.8246 17.6027C28.0972 18.261 31.9173 19.7287 34.5043 21.7206C34.8743 23.1476 36.1738 24.203 37.7158 24.203V24.2032ZM33.7028 50.7951C33.7801 51.4375 33.3214 52.0211 32.6745 52.0976C31.7899 52.2039 30.8948 52.2571 29.9992 52.2571C29.297 52.2571 28.5895 52.2237 27.8873 52.1582C27.2462 52.0971 26.7703 51.5254 26.8314 50.8812C26.8925 50.2374 27.4615 49.7641 28.1084 49.8247C29.5344 49.9592 30.9775 49.9407 32.3983 49.7702C33.0398 49.6925 33.6256 50.1517 33.703 50.795L33.7028 50.7951ZM7.74424 30.0001C7.74424 25.9687 8.82746 22.019 10.8898 18.5795C11.2272 18.0245 11.9457 17.8438 12.4981 18.1765C13.0566 18.5087 13.2333 19.2285 12.9015 19.7844C11.0607 22.8601 10.0882 26.3931 10.0882 30.0004C10.0882 30.6473 9.56307 31.1724 8.91622 31.1724C8.26365 31.1724 7.74423 30.6473 7.74423 30.0004L7.74424 30.0001ZM50.8326 22.1495C52.0433 25.3737 52.4963 28.9002 52.1312 32.3485C52.0701 32.9501 51.5617 33.3983 50.9702 33.3983C50.9263 33.3983 50.8876 33.3965 50.8428 33.3917C50.2016 33.324 49.7319 32.7479 49.8035 32.1042C50.1243 29.0158 49.7209 25.8593 48.6373 22.9753C48.4109 22.3702 48.7146 21.6939 49.3232 21.4658C49.9261 21.2378 50.6006 21.5445 50.8327 22.1496L50.8326 22.1495ZM48.0739 57.6545C53.3586 57.6545 57.6536 53.3577 57.6536 48.0748C57.6536 42.7923 53.3585 38.4946 48.0739 38.4946C42.7893 38.4946 38.4941 42.7914 38.4941 48.0748C38.4941 49.9451 39.0303 51.7582 40.0528 53.3169C40.2576 53.6241 40.3015 54.0086 40.1802 54.3544L39.2741 56.875L41.7947 55.9715C41.9221 55.925 42.0544 55.9026 42.1928 55.9026C42.4139 55.9026 42.6402 55.9676 42.834 56.0941C44.393 57.1154 46.2005 57.6546 48.0738 57.6546L48.0739 57.6545ZM48.0739 36.152C41.4959 36.152 36.1515 41.5008 36.1515 48.0755C36.1515 50.2041 36.71 52.2734 37.7823 54.0958L36.2288 58.4212C36.0798 58.8479 36.1849 59.3243 36.5052 59.6451C36.826 59.9659 37.301 60.0731 37.7273 59.9202L42.0558 58.3689C43.8799 59.4372 45.947 59.9997 48.0752 59.9997C54.6475 59.9997 59.9976 54.6508 59.9976 48.0762C59.9976 41.5009 54.6471 36.1516 48.0741 36.1516L48.0739 36.152ZM20.2479 57.6545H8.18714L8.1867 44.7422C9.63509 43.0504 11.8631 40.1808 10.8071 36.8833C10.6858 36.5032 10.9842 36.1547 11.1169 36.0225C11.4429 35.7004 12.0015 35.4508 12.5099 35.6208C13.1563 35.8366 13.6432 36.7264 13.8419 38.0628C13.9966 39.099 13.8366 40.3272 13.7092 41.315C13.6481 41.791 13.5932 42.2027 13.5765 42.5657C13.5378 43.3211 13.5044 44.033 13.9966 44.6358C14.538 45.2959 15.4283 45.4128 16.2909 45.4756C16.3186 45.4774 16.3459 45.4782 16.3797 45.4782H22.1117C22.3662 45.4782 22.6536 45.6101 22.8078 45.7986C22.9238 45.9357 22.9076 46.0236 22.9018 46.0526L22.5811 47.8894H16.8213C16.1745 47.8894 15.6494 48.4137 15.6494 49.0614C15.6494 49.7083 16.1745 50.2334 16.8213 50.2334H22.1724L21.7522 52.6358H16.3792C15.7323 52.6358 15.2072 53.16 15.2072 53.8078C15.2072 54.4546 15.7323 54.9797 16.3792 54.9797H21.3431L21.0447 56.6773C21.028 56.7766 20.8566 57.6542 20.2485 57.6542L20.2479 57.6545ZM2.34407 45.4791H5.84294V57.6545H2.34407V45.4791ZM22.1108 43.1355H16.4175C16.1798 43.1171 16.0141 43.0973 15.8976 43.0793C15.9029 42.9505 15.9086 42.8011 15.9139 42.6842C15.9302 42.414 15.975 42.0448 16.0299 41.6186C16.1789 40.4866 16.3612 39.0782 16.1626 37.7181C15.7038 34.6495 14.1395 33.6946 13.2495 33.3988C11.9725 32.9721 10.4855 33.3491 9.46289 34.3577C8.54534 35.2673 8.21361 36.4792 8.57302 37.6007C9.1979 39.5443 7.94286 41.3957 6.47248 43.1368L1.17199 43.1363C0.525572 43.1363 0 43.6606 0 44.3083V58.8271C0 59.474 0.525133 60 1.17199 60H20.248C21.8015 60 23.045 58.8271 23.3544 57.0817L25.2115 46.4578C25.3442 45.6888 25.1289 44.9197 24.6033 44.2918C23.9956 43.5671 23.0618 43.1352 22.1108 43.1352V43.1355Z" fill="#B8EDFC"/>
</svg>