<svg width="100%" height="100%" viewBox="0 0 100 100" fill="none" xmlns="http://www.w3.org/2000/svg">
<circle cx="50" cy="50" r="49" fill="#121E2C" stroke="#07AB67" stroke-width="2" stroke-dasharray="6 6"/>
<circle cx="50" cy="50" r="40" fill="#07AB67" fill-opacity="0.3"/>
<circle cx="50" cy="50" r="35" fill="#07AB67"/>
<path d="M48.9454 61.2983C47.3545 61.2983 45.9376 61.0249 44.6947 60.478C43.4589 59.924 42.4823 59.1641 41.765 58.1982C41.0548 57.2251 40.689 56.103 40.6677 54.8317H45.3126C45.341 55.3643 45.515 55.8331 45.8346 56.2379C46.1613 56.6357 46.5945 56.9446 47.1343 57.1648C47.6741 57.3849 48.2813 57.495 48.9561 57.495C49.6592 57.495 50.2806 57.3707 50.8204 57.1222C51.3602 56.8736 51.7828 56.5291 52.0882 56.0888C52.3936 55.6484 52.5463 55.1406 52.5463 54.5653C52.5463 53.983 52.3829 53.468 52.0562 53.0206C51.7366 52.5661 51.2749 52.2109 50.6713 51.9553C50.0747 51.6996 49.3644 51.5717 48.5406 51.5717H46.5058V48.1839H48.5406C49.2366 48.1839 49.8509 48.0632 50.3836 47.8217C50.9234 47.5803 51.3424 47.2464 51.6407 46.8203C51.939 46.3871 52.0882 45.8828 52.0882 45.3075C52.0882 44.7607 51.9568 44.2812 51.694 43.8693C51.4383 43.4503 51.0761 43.1236 50.6073 42.8892C50.1457 42.6548 49.6059 42.5376 48.988 42.5376C48.363 42.5376 47.7913 42.6513 47.2728 42.8786C46.7544 43.0987 46.3389 43.4148 46.0264 43.8267C45.7139 44.2386 45.547 44.7216 45.5257 45.2756H41.1045C41.1258 44.0185 41.4845 42.9105 42.1805 41.9517C42.8765 40.9929 43.814 40.2436 44.993 39.7038C46.1791 39.157 47.5178 38.8835 49.0093 38.8835C50.515 38.8835 51.8325 39.157 52.9617 39.7038C54.091 40.2507 54.9681 40.9893 55.5931 41.9197C56.2252 42.843 56.5377 43.88 56.5306 45.0305C56.5377 46.2521 56.1578 47.2713 55.3907 48.0881C54.6308 48.9048 53.64 49.4233 52.4184 49.6435V49.8139C54.0235 50.0199 55.2451 50.5774 56.0832 51.4865C56.9284 52.3885 57.3474 53.5178 57.3403 54.8743C57.3474 56.1172 56.9887 57.2216 56.2643 58.1875C55.547 59.1534 54.5562 59.9134 53.292 60.4673C52.0278 61.0213 50.5789 61.2983 48.9454 61.2983Z" fill="white"/>
</svg>