<svg width="60" height="60" viewBox="0 0 60 60" fill="none" xmlns="http://www.w3.org/2000/svg">
<path fill-rule="evenodd" clip-rule="evenodd" d="M45.7468 23.8104C46.4415 21.7261 48.3994 20.2102 50.6731 20.2102V20.2103C53.5156 20.2103 55.8522 22.5474 55.7892 25.4524C55.7892 28.2314 53.5156 30.5681 50.6736 30.5681C48.3368 30.5681 46.379 29.0521 45.7473 26.9679H35.7683V29.7469C35.7683 30.5681 35.0736 31.2628 34.2524 31.2628H25.5999C24.7787 31.2628 24.084 30.5681 24.084 29.7469V28.2944C19.9155 30.2522 16.947 34.2943 16.3787 39.0311H19.0943C19.9154 39.0311 20.6102 39.7258 20.6102 40.547L20.6106 49.0096C20.6106 49.8308 19.9159 50.5255 19.0947 50.5255H10.4422C9.62107 50.5255 8.92631 49.8308 8.92631 49.0096V40.3571C8.92631 39.536 9.62103 38.8412 10.4422 38.8412H13.2842C13.7895 33.8516 16.4421 29.4936 20.2947 26.778H14.042C13.3473 28.8624 11.3894 30.3783 9.11567 30.3783C6.33673 30.3783 4 28.1046 4 25.2626C4 22.4837 6.27368 20.1469 9.11567 20.1469C11.4524 20.1469 13.4102 21.6629 14.042 23.7471L24.0206 23.7476V20.9685C24.0206 20.1474 24.7153 19.4526 25.5365 19.4526H34.2519C35.0731 19.4526 35.7678 20.1473 35.7678 20.9685V22.421C39.9364 20.4633 42.9048 16.4212 43.4731 11.6843H40.7575C39.9364 11.6843 39.2416 10.9896 39.2416 10.1684V1.5159C39.2416 0.694759 39.9364 0 40.7575 0H49.347C50.1682 0 50.8629 0.694714 50.8629 1.5159L50.8625 10.2314C50.8625 11.0525 50.1678 11.7473 49.3466 11.7473H46.5046C45.9993 16.7368 43.3467 21.0948 39.4941 23.8104H45.7468ZM47.8315 3.0944H42.2735V8.6524H47.8315V3.0944ZM7.03136 25.326C7.03136 26.463 7.97896 27.4102 9.11557 27.4102C10.2522 27.4102 11.1993 26.5261 11.1998 25.326C11.1998 24.1889 10.2522 23.2418 9.11557 23.2418C7.97855 23.2418 7.03136 24.1894 7.03136 25.326ZM11.9572 47.6207H17.5152V42.0627H11.9572V47.6207ZM27.1151 28.1681H32.6731V22.6101H27.1151V28.1681ZM48.5889 25.3257C48.5889 26.4627 49.5365 27.4099 50.6731 27.4099C51.8101 27.4099 52.7573 26.5258 52.7573 25.3257C52.7573 24.1886 51.8097 23.2415 50.6731 23.2415C49.5361 23.2415 48.5889 24.189 48.5889 25.3257ZM41.7676 31.2C42.2729 31.2 42.7148 31.4524 43.0307 31.8947L50.1051 42.3155C50.3575 42.6315 50.4839 43.0733 50.3575 43.5157L48.2102 52.4841V58.484C48.2102 59.3051 47.5155 59.9999 46.6943 59.9999H36.7783C35.9572 59.9999 35.2624 59.3051 35.2624 58.484V52.4841L33.1152 43.5157C33.0517 43.1367 33.1152 42.6944 33.3676 42.3155L40.5046 31.8947C40.757 31.4524 41.2623 31.2 41.7676 31.2ZM38.3569 53.6209V56.9052H45.1779V53.6209H38.3569ZM37.978 50.5264H45.5569L47.2618 43.4528L43.3461 37.7054V43.3264C43.9144 43.7683 44.2933 44.463 44.2933 45.2842C44.2933 46.6737 43.1567 47.8103 41.7672 47.8103C40.3778 47.8103 39.2411 46.6737 39.2411 45.2842C39.2411 44.463 39.62 43.7687 40.1883 43.3264V37.7054L36.2727 43.4528L37.978 50.5264Z" fill="#B8EDFC"/>
</svg>