<svg width="60" height="60" viewBox="0 0 60 60" fill="none" xmlns="http://www.w3.org/2000/svg">
<path fill-rule="evenodd" clip-rule="evenodd" d="M18.7267 0H40.5448C42.3522 0.00207792 44.0853 0.721454 45.3637 1.99935C46.6416 3.27766 47.361 5.01065 47.363 6.81818V53.1818C47.361 54.9892 46.6416 56.7222 45.3637 58.0007C44.0854 59.2786 42.3524 59.998 40.5448 60H18.7267C16.9193 59.9979 15.1862 59.2785 13.9078 58.0007C12.6299 56.7223 11.9105 54.9894 11.9085 53.1818V6.81818C11.9106 5.01078 12.6299 3.27777 13.9078 1.99935C15.1861 0.721389 16.9191 0.00202922 18.7267 0ZM40.5448 2.72727H18.7268C17.6421 2.72829 16.6021 3.16001 15.8351 3.92655C15.0685 4.69369 14.6368 5.73361 14.6358 6.81823V49.091H17.3631V43.6364C17.3662 41.4489 18.1196 39.3289 19.4968 37.6299C20.8746 35.9304 22.7932 34.755 24.9326 34.2994C22.1997 32.8845 20.2496 30.3134 19.6231 27.3006C18.9966 24.2871 19.7601 21.152 21.702 18.7646C23.6445 16.3772 26.5585 14.9912 29.6358 14.9912C32.7131 14.9912 35.6271 16.3772 37.5696 18.7646C39.5116 21.152 40.2751 24.2872 39.6485 27.3006C39.022 30.3136 37.0719 32.8845 34.3391 34.2994C36.4783 34.755 38.397 35.9304 39.7748 37.6299C41.1521 39.3289 41.9055 41.4489 41.9085 43.6364V49.091H44.6358V6.81823C44.6348 5.73356 44.2031 4.69358 43.4365 3.92655C42.6694 3.16 41.6295 2.72829 40.5448 2.72727ZM24.3319 30.5301C25.7386 31.9369 27.6467 32.7273 29.6358 32.7273C31.6243 32.7247 33.5303 31.9343 34.9365 30.5281C36.3423 29.1223 37.1337 27.216 37.1363 25.2278C37.1363 23.2382 36.3464 21.3307 34.9397 19.9239C33.5334 18.5171 31.6254 17.7268 29.6363 17.7268C27.6471 17.7262 25.7391 18.5166 24.3324 19.9229C22.9256 21.3296 22.1352 23.2377 22.1352 25.2268C22.1352 27.2158 22.9256 29.1239 24.3319 30.5301ZM37.1819 38.8175C35.9035 37.5396 34.1706 36.8202 32.363 36.8182H26.9085C25.1011 36.8203 23.3681 37.5396 22.0896 38.8175C20.8117 40.0958 20.0923 41.8288 20.0903 43.6364V49.0909H39.1812V43.6364C39.1791 41.829 38.4598 40.0959 37.1819 38.8175ZM18.7267 57.2727H40.5447C41.6294 57.2717 42.6694 56.84 43.4364 56.0735C44.203 55.3063 44.6347 54.2664 44.6357 53.1818V51.8181H14.6357V53.1818C14.6367 54.2664 15.0684 55.3064 15.835 56.0735C16.6021 56.84 17.642 57.2717 18.7267 57.2727ZM30.9997 8.18151H22.8179C22.0645 8.18151 21.4542 7.57123 21.4542 6.81788C21.4542 6.06453 22.0645 5.45424 22.8179 5.45424H30.9997C31.753 5.45424 32.3633 6.06453 32.3633 6.81788C32.3633 7.57123 31.753 8.18151 30.9997 8.18151ZM37.8188 6.81788C37.8188 7.57123 37.2085 8.18151 36.4552 8.18151C35.7018 8.18151 35.0915 7.57123 35.0915 6.81788C35.0915 6.06453 35.7018 5.45424 36.4552 5.45424C37.2085 5.45424 37.8188 6.06453 37.8188 6.81788ZM30.818 26.585C31.1978 25.9347 32.0329 25.715 32.6833 26.0945H32.6833C33.3336 26.4743 33.5533 27.3089 33.1738 27.9598C32.4433 29.222 31.0954 29.9997 29.6369 29.9997C28.1785 29.9997 26.8306 29.222 26.1001 27.9598C25.7206 27.3095 25.9403 26.4739 26.5906 26.0945C27.2414 25.715 28.0765 25.9347 28.4559 26.585C28.7142 26.9873 29.1591 27.2303 29.637 27.2303C30.1148 27.2303 30.5597 26.9873 30.818 26.585ZM56.9093 28.6364H52.8179C52.0645 28.6364 51.4542 29.2467 51.4542 30.0001C51.4542 30.7534 52.0645 31.3637 52.8179 31.3637H56.9093C57.6627 31.3637 58.2729 30.7534 58.2729 30.0001C58.2729 29.2467 57.6627 28.6364 56.9093 28.6364ZM6.45455 28.6364C7.20739 28.637 7.81767 29.2472 7.81818 30.0001C7.81766 30.7529 7.20739 31.3632 6.45455 31.3637H2.36364C1.61029 31.3637 1 30.7534 1 30.0001C1 29.2467 1.61029 28.6364 2.36364 28.6364H6.45455ZM51.729 21.478C51.968 21.478 52.2029 21.4151 52.4098 21.2954L55.9518 19.2504H55.9513C56.6037 18.8735 56.8274 18.0395 56.451 17.387C56.0741 16.7352 55.2401 16.5114 54.5876 16.8878L51.0457 18.9328H51.0462C50.5105 19.2412 50.2492 19.8713 50.4095 20.4684C50.5693 21.065 51.1111 21.4794 51.729 21.4784L51.729 21.478ZM4.68457 16.8878L8.22652 18.9328C8.87891 19.3098 9.10262 20.1438 8.7257 20.7962C8.34921 21.4481 7.51523 21.6718 6.86284 21.2954H6.86335L3.3214 19.2504C2.669 18.8734 2.44529 18.0394 2.8217 17.387C3.19872 16.7351 4.03269 16.5114 4.68508 16.8878H4.68457ZM8.58757 41.5452L5.04562 43.5902H5.04613C4.39374 43.9666 3.55976 43.7429 3.18275 43.091C2.80634 42.4386 3.03005 41.6046 3.68245 41.2276L7.2244 39.1827H7.22389C7.87628 38.8063 8.71026 39.03 9.08675 39.6819C9.46367 40.3343 9.23996 41.1682 8.58757 41.5452ZM52.4099 38.7057L55.9518 40.7506C56.6042 41.1276 56.8279 41.9616 56.4515 42.614C56.0745 43.2659 55.2405 43.4896 54.5881 43.1132H54.5886L51.0467 41.0682C50.3943 40.6912 50.1706 39.8572 50.5475 39.2048C50.924 38.5529 51.758 38.3292 52.4104 38.7057H52.4099Z" fill="#B8EDFC"/>
</svg>