<svg width="24" height="24" viewBox="0 0 24 24" fill="none" xmlns="http://www.w3.org/2000/svg">
<path d="M3.00381 22L4.28821 17.2804C3.44189 15.8296 2.99725 14.1796 3.00001 12.5C3.00001 7.25315 7.25316 3 12.5 3C17.7469 3 22 7.25315 22 12.5C22 17.7468 17.7469 22 12.5 22C10.8211 22.0027 9.17183 21.5584 7.72151 20.7127L3.00381 22ZM9.07146 8.0426C8.94878 8.05021 8.8289 8.08253 8.71901 8.1376C8.61595 8.19595 8.52188 8.26891 8.43971 8.3542C8.32571 8.46155 8.26111 8.55465 8.19176 8.6449C7.84065 9.10184 7.65179 9.66274 7.65501 10.239C7.65691 10.7045 7.77851 11.1576 7.96851 11.5813C8.35706 12.4382 8.99641 13.3455 9.84096 14.1862C10.0443 14.3886 10.2428 14.5919 10.4566 14.7809C11.5048 15.7038 12.7539 16.3694 14.1046 16.7246L14.6451 16.8073C14.8209 16.8168 14.9966 16.8035 15.1733 16.7949C15.45 16.7807 15.7201 16.7057 15.9647 16.5755C16.0891 16.5114 16.2105 16.4417 16.3285 16.3665C16.3285 16.3665 16.3694 16.3399 16.4473 16.281C16.5755 16.186 16.6544 16.1185 16.7608 16.0074C16.8396 15.9257 16.908 15.8297 16.9603 15.7205C17.0344 15.5656 17.1085 15.2702 17.1389 15.0241C17.1617 14.836 17.155 14.7334 17.1522 14.6698C17.1484 14.5681 17.0638 14.4627 16.9717 14.418L16.4188 14.1701C16.4188 14.1701 15.5923 13.81 15.0878 13.5801C15.0346 13.557 14.9776 13.5438 14.9197 13.5412C14.8547 13.5345 14.789 13.5418 14.727 13.5626C14.6651 13.5835 14.6083 13.6173 14.5606 13.6618V13.6599C14.5558 13.6599 14.4922 13.7141 13.8053 14.5463C13.7659 14.5993 13.7116 14.6393 13.6493 14.6613C13.5871 14.6833 13.5197 14.6862 13.4557 14.6698C13.3938 14.6532 13.3332 14.6323 13.2743 14.6071C13.1565 14.5577 13.1156 14.5387 13.0349 14.5035L13.0301 14.5016C12.4866 14.2644 11.9834 13.9438 11.5386 13.5516C11.4189 13.4471 11.3078 13.3331 11.1938 13.2229C10.82 12.865 10.4943 12.4601 10.2248 12.0183L10.1687 11.9281C10.1284 11.8675 10.0959 11.802 10.0718 11.7333C10.0357 11.5937 10.1298 11.4816 10.1298 11.4816C10.1298 11.4816 10.3606 11.2289 10.468 11.0921C10.5573 10.9784 10.6407 10.8601 10.7178 10.7377C10.8299 10.5572 10.8651 10.372 10.8062 10.2285C10.5402 9.57875 10.2647 8.9318 9.98156 8.2896C9.92551 8.1623 9.75926 8.0711 9.60821 8.05305C9.55691 8.04735 9.50561 8.04165 9.45431 8.03785C9.32673 8.03151 9.19889 8.03373 9.07146 8.0426Z" fill="#DCF8DB"/>
</svg>