<svg width="24" height="24" viewBox="0 0 24 24" fill="none" xmlns="http://www.w3.org/2000/svg">
<path fill-rule="evenodd" clip-rule="evenodd" d="M21.0957 5.47335V18.3352C21.0957 19.8045 19.9002 21 18.4309 21H5.56905C4.09983 21 2.9043 19.8045 2.9043 18.3352V5.47335C2.9043 4.00413 4.09983 2.80859 5.56905 2.80859H18.4309C19.9002 2.80859 21.0957 4.00413 21.0957 5.47335ZM7.23897 11.8688C7.23897 14.5137 9.39062 16.6653 12.0355 16.6653C14.6804 16.6653 16.8321 14.5137 16.8321 11.8688C16.8321 9.22386 14.6804 7.0722 12.0355 7.0722C9.39062 7.0722 7.23897 9.22386 7.23897 11.8688ZM15.7662 6.53925C15.7662 7.42084 16.4835 8.13811 17.365 8.13811C18.2466 8.13811 18.9639 7.42084 18.9639 6.53925C18.9639 5.65766 18.2466 4.9404 17.365 4.9404C16.4835 4.9404 15.7662 5.65766 15.7662 6.53925ZM17.8971 6.53925C17.8971 6.83335 17.6583 7.0722 17.3642 7.0722C17.0701 7.0722 16.8312 6.83335 16.8312 6.53925C16.8312 6.24516 17.0701 6.0063 17.3642 6.0063C17.6583 6.0063 17.8971 6.24516 17.8971 6.53925ZM12.0351 15.5994C14.0919 15.5994 15.7657 13.9256 15.7657 11.8688C15.7657 9.81191 14.0919 8.13811 12.0351 8.13811C9.97823 8.13811 8.30443 9.81191 8.30443 11.8688C8.30443 13.9256 9.97823 15.5994 12.0351 15.5994Z" fill="#DCF8DB"/>
</svg>