<svg width="60" height="60" viewBox="0 0 60 60" fill="none" xmlns="http://www.w3.org/2000/svg">
<g clip-path="url(#clip0_5702_425)">
<path fill-rule="evenodd" clip-rule="evenodd" d="M60 59.5749H6.58799V54.8644L0 48.2764L6.58799 41.6884V0H53.8371V4.10862H60V59.5749ZM57.9457 57.5206V6.16292H53.8371V57.5206H57.9457ZM51.7828 2.05431H8.6423L8.64145 39.6343L9.54434 38.7323C10.1092 38.1954 10.8535 37.8867 11.6326 37.8661C12.412 37.8459 13.1714 38.1147 13.7639 38.6213L15.727 36.6574C12.3828 32.9274 10.5853 28.0631 10.7004 23.0544C10.8155 18.0453 12.834 13.2686 16.3456 9.69551C19.8583 6.12243 24.5991 4.02136 29.6047 3.81914C34.6108 3.61734 39.5053 5.33005 43.2934 8.60873C47.0816 11.8873 49.4784 16.4853 49.9961 21.4687C50.5138 26.4521 49.1143 31.4457 46.0814 35.4333C43.0482 39.4208 38.6103 42.1034 33.6699 42.9352C28.7299 43.767 23.6584 42.6857 19.487 39.911L17.2722 42.1258C17.7945 42.7113 18.0737 43.4739 18.0526 44.258C18.032 45.0426 17.7128 45.7891 17.1603 46.3463L8.6423 54.8642V57.5206H51.7828V2.05431ZM17.8651 11.2776C14.5906 14.5521 12.7509 18.9937 12.7509 23.6245L12.7508 23.6244C12.7558 28.2537 14.5973 32.6919 17.871 35.9655C21.1442 39.2392 25.5825 41.0807 30.2121 41.0857C34.8426 41.0857 39.2841 39.2461 42.559 35.9715C45.8335 32.697 47.6732 28.2551 47.6732 23.6245C47.6732 18.994 45.8336 14.5525 42.559 11.2776C39.2845 8.00312 34.8426 6.16339 30.2121 6.16339C25.5815 6.16339 21.14 8.003 17.8651 11.2776ZM17.4112 38.3221C17.3347 38.2502 17.2582 38.1782 17.18 38.108L15.2302 40.0596L15.8323 40.6617L17.8105 38.6812C17.6721 38.5673 17.5417 38.4447 17.4112 38.3221ZM12.45 40.182C12.0442 39.7923 11.4032 39.7923 10.9974 40.182L2.90432 48.2768L7.61503 52.9875L15.7071 44.8923C16.1079 44.491 16.1079 43.8413 15.7071 43.4401L12.45 40.182ZM34.6145 8.86425C39.5999 10.3389 43.499 14.238 44.9736 19.2234L45.3671 20.5431H33.2948V8.47081L34.6145 8.86425ZM35.3491 11.2987V18.4888H42.5392C41.1919 15.2326 38.6053 12.646 35.3491 11.2987ZM45.6206 23.6246V22.5975H31.2405V8.21732H30.2133C25.5517 8.21594 21.1404 10.3257 18.2161 13.9561C15.292 17.586 14.1694 22.3453 15.1631 26.8994C16.1572 31.4538 19.1603 35.3129 23.3312 37.3942C25.4649 38.4723 27.8228 39.0331 30.2132 39.0317C34.298 39.0271 38.2144 37.4025 41.1029 34.5141C43.9914 31.6257 45.6159 27.7092 45.6205 23.6244L45.6206 23.6246ZM43.5273 24.6518C43.2641 28.0038 41.7482 31.1339 39.2807 33.4184C36.8131 35.7024 33.5758 36.9735 30.2133 36.9776C28.4891 36.9726 26.7828 36.6291 25.1917 35.9661L30.848 24.6518L43.5273 24.6518ZM16.8601 23.6246C16.8642 20.262 18.1353 17.0247 20.4193 14.5573C22.7038 12.0897 25.8339 10.5738 29.1859 10.3106V23.3819L23.3467 35.0607C19.3151 32.6629 16.849 28.3149 16.8601 23.6244V23.6246ZM46.6466 45.1948H21.9949V47.2491H46.6466V45.1948ZM17.8874 49.3031H46.6478V51.3574H17.8874V49.3031ZM46.6475 53.4122H15.8329V55.4665H46.6475V53.4122Z" fill="#B8EDFC"/>
</g>
<defs>
<clipPath id="clip0_5702_425">
<rect width="60" height="60" fill="white"/>
</clipPath>
</defs>
</svg>