<svg width="24" height="24" viewBox="0 0 24 24" fill="none" xmlns="http://www.w3.org/2000/svg">
<path d="M4.6087 3C3.1 3 2.00425 3.91904 2.00425 5.18304C2.00425 6.45147 3.12609 7.41098 4.6087 7.41098C6.11739 7.41098 7.21315 6.47419 7.21315 5.15715C7.14358 3.88872 6.06957 3 4.6087 3ZM2.43478 8.29921C2.19565 8.29921 2 8.4981 2 8.74117V21.558C2 21.8011 2.19565 22 2.43478 22H6.78261C7.02174 22 7.21739 21.8011 7.21739 21.558V8.74117C7.21739 8.4981 7.02174 8.29921 6.78261 8.29921H2.43478ZM8.95652 8.29921C8.71739 8.29921 8.52174 8.4981 8.52174 8.74117V21.558C8.52174 21.8011 8.71739 22 8.95652 22H12.8696C13.1096 22 13.3043 21.802 13.3043 21.558V14.9286V14.8181V14.7076C13.3043 13.6602 14.0959 12.807 15.1046 12.7275C15.1568 12.7186 15.2087 12.7188 15.2609 12.7188C15.313 12.7188 15.3649 12.7186 15.4171 12.7275C16.4258 12.807 17.2174 13.6602 17.2174 14.7076V21.558C17.2174 21.802 17.4122 22 17.6522 22H21.5652C21.8043 22 22 21.8011 22 21.558V14.0447C22 11.1852 20.4909 8.29921 17.1257 8.29921C15.5952 8.29921 14.4391 8.90038 13.7391 9.3998V8.74117C13.7391 8.4981 13.5435 8.29921 13.3043 8.29921H8.95652Z" fill="#DCF8DB"/>
</svg>